<svg xmlns="http://www.w3.org/2000/svg" xmlns:xlink="http://www.w3.org/1999/xlink" viewBox="0 0 673.47 67.19"><defs><style>.cls-1{font-size:81.27px;font-family:JosefinSans-Bold, Josefin Sans;font-weight:700;letter-spacing:-0.03em;}.cls-1,.cls-2{fill:none;}.cls-3{clip-path:url(#clip-path);}.cls-4{fill:#ff9878;}.cls-4,.cls-5,.cls-6,.cls-7{opacity:0.64;}.cls-5{fill:#627ff9;}.cls-6{fill:#ff64c8;}.cls-7{fill:#5ddb93;}.cls-8{clip-path:url(#clip-path-2);}</style><clipPath id="clip-path"><text class="cls-1" transform="translate(-3.36 65.58) scale(0.95 1)">Emotional</text></clipPath><clipPath id="clip-path-2"><path class="cls-2" d="M401.66,5.33,426.93,66H376.32ZM455,66.62c-16.43,0-29.77-13.59-29.77-30.35A30,30,0,0,1,455,6c16.34,0,29.69,13.51,29.69,30.27S471.33,66.62,455,66.62Zm124.74,0C563.3,66.62,550,53,550,36.27A30,30,0,0,1,579.73,6c16.34,0,29.69,13.51,29.69,30.27S596.07,66.62,579.73,66.62ZM656.2,66H613.09V6.58h22a16.56,16.56,0,1,1,0,33.11ZM668,66h-8.17L659.93.83h8.18ZM529.8,10.06a25,25,0,0,1-13.07-4h-.05c0,.17,0,24.22,0,24.38a14.45,14.45,0,0,1,12.11-5.25c9.84.59,3.51,23.36-2.88,23.36-5.18,0-6.91-9.46-6.91-9.46s-1.36,9.43-6.4,9.46c-7.56,0-6.42-22.65-6.42-22.65H494a51.11,51.11,0,0,1-15.9,41h76.63a62.32,62.32,0,0,1-6.61-10.28c-10.34-20.17-7-40.84-4.73-50.36C543.42,6.26,536.63,10.18,529.8,10.06Z"/></clipPath></defs><g id="banat_small" data-name="banat small"><g class="cls-3"><polygon class="cls-4" points="13.9 -17.87 -27.24 -17.87 -6.67 17.76 13.9 -17.87"/><polygon class="cls-5" points="55.04 -17.87 13.9 -17.87 34.47 17.76 55.04 -17.87"/><polygon class="cls-4" points="13.9 17.76 34.47 17.76 13.9 -17.87 -6.67 17.76 13.9 17.76"/><polygon class="cls-5" points="13.9 17.76 34.47 17.76 13.9 -17.87 -6.67 17.76 13.9 17.76"/><polygon class="cls-6" points="96.19 -17.87 55.04 -17.87 75.61 17.76 96.19 -17.87"/><polygon class="cls-5" points="55.04 17.76 75.61 17.76 55.04 -17.87 34.47 17.76 55.04 17.76"/><polygon class="cls-6" points="55.04 17.76 75.61 17.76 55.04 -17.87 34.47 17.76 55.04 17.76"/><polygon class="cls-7" points="137.33 -17.87 96.19 -17.87 116.76 17.76 137.33 -17.87"/><polygon class="cls-6" points="96.19 17.76 116.76 17.76 96.19 -17.87 75.61 17.76 96.19 17.76"/><polygon class="cls-7" points="96.19 17.76 116.76 17.76 96.19 -17.87 75.61 17.76 96.19 17.76"/><polygon class="cls-4" points="178.47 -17.87 137.33 -17.87 157.9 17.76 178.47 -17.87"/><polygon class="cls-7" points="137.33 17.76 157.9 17.76 137.33 -17.87 116.76 17.76 137.33 17.76"/><polygon class="cls-4" points="137.33 17.76 157.9 17.76 137.33 -17.87 116.76 17.76 137.33 17.76"/><polygon class="cls-5" points="219.62 -17.87 178.47 -17.87 199.04 17.76 219.62 -17.87"/><polygon class="cls-4" points="178.47 17.76 199.04 17.76 178.47 -17.87 157.9 17.76 178.47 17.76"/><polygon class="cls-5" points="178.47 17.76 199.04 17.76 178.47 -17.87 157.9 17.76 178.47 17.76"/><polygon class="cls-6" points="260.76 -17.87 219.62 -17.87 240.19 17.76 260.76 -17.87"/><polygon class="cls-5" points="219.62 17.76 240.19 17.76 219.62 -17.87 199.04 17.76 219.62 17.76"/><polygon class="cls-6" points="219.62 17.76 240.19 17.76 219.62 -17.87 199.04 17.76 219.62 17.76"/><polygon class="cls-7" points="301.9 -17.87 260.76 -17.87 281.33 17.76 301.9 -17.87"/><polygon class="cls-6" points="260.76 17.76 281.33 17.76 260.76 -17.87 240.19 17.76 260.76 17.76"/><polygon class="cls-7" points="260.76 17.76 281.33 17.76 260.76 -17.87 240.19 17.76 260.76 17.76"/><polygon class="cls-4" points="343.05 -17.87 301.9 -17.87 322.47 17.76 343.05 -17.87"/><polygon class="cls-7" points="301.9 17.76 322.47 17.76 301.9 -17.87 281.33 17.76 301.9 17.76"/><polygon class="cls-4" points="301.9 17.76 322.47 17.76 301.9 -17.87 281.33 17.76 301.9 17.76"/><polygon class="cls-5" points="384.19 -17.87 384.19 -17.87 343.05 -17.87 363.62 17.76 384.19 -17.87"/><polygon class="cls-4" points="343.05 17.76 363.62 17.76 343.05 -17.87 322.47 17.76 343.05 17.76"/><polygon class="cls-5" points="343.05 17.76 363.62 17.76 343.05 -17.87 322.47 17.76 343.05 17.76"/><polygon class="cls-6" points="425.33 -17.87 384.19 -17.87 384.19 -17.87 404.76 17.76 425.33 -17.87"/><polygon class="cls-5" points="384.19 17.76 384.19 17.76 384.19 17.76 404.76 17.76 384.19 -17.87 363.62 17.76 384.19 17.76"/><polygon class="cls-6" points="384.19 17.76 384.19 17.76 384.19 17.76 404.76 17.76 384.19 -17.87 363.62 17.76 384.19 17.76"/><polygon class="cls-7" points="466.48 -17.87 425.33 -17.87 445.9 17.76 466.48 -17.87"/><polygon class="cls-6" points="425.33 17.76 445.9 17.76 425.33 -17.87 404.76 17.76 425.33 17.76"/><polygon class="cls-7" points="425.33 17.76 445.9 17.76 425.33 -17.87 404.76 17.76 425.33 17.76"/><polygon class="cls-4" points="507.62 17.76 517.9 35.58 528.19 17.76 507.62 -17.87 466.48 -17.87 487.05 17.76 507.62 17.76"/><polygon class="cls-7" points="466.48 17.76 487.05 17.76 466.48 -17.87 445.9 17.76 466.48 17.76"/><polygon class="cls-4" points="466.48 17.76 487.05 17.76 466.48 -17.87 445.9 17.76 466.48 17.76"/><polygon class="cls-4" points="-27.24 89.03 13.9 89.03 -6.67 53.4 -27.24 89.03"/><polygon class="cls-4" points="-6.67 17.76 -16.96 35.58 -6.67 53.4 3.61 35.58 -6.67 17.76"/><polygon class="cls-4" points="-6.67 17.76 -16.96 35.58 -6.67 53.4 3.61 35.58 -6.67 17.76"/><polygon class="cls-4" points="13.9 17.76 -6.67 17.76 3.61 35.58 13.9 17.76"/><polygon class="cls-5" points="13.9 17.76 -6.67 17.76 3.61 35.58 13.9 17.76"/><polygon class="cls-4" points="13.9 17.76 -6.67 17.76 3.61 35.58 13.9 17.76"/><polygon class="cls-5" points="13.9 89.03 55.04 89.03 34.47 53.4 13.9 89.03"/><polygon class="cls-5" points="34.47 17.76 24.19 35.58 34.47 53.4 44.76 35.58 34.47 17.76"/><polygon class="cls-5" points="34.47 17.76 24.19 35.58 34.47 53.4 44.76 35.58 34.47 17.76"/><polygon class="cls-4" points="34.47 17.76 13.9 17.76 24.19 35.58 34.47 17.76"/><polygon class="cls-5" points="34.47 17.76 13.9 17.76 24.19 35.58 34.47 17.76"/><polygon class="cls-5" points="34.47 17.76 13.9 17.76 24.19 35.58 34.47 17.76"/><polygon class="cls-5" points="55.04 17.76 34.47 17.76 44.76 35.58 55.04 17.76"/><polygon class="cls-6" points="55.04 17.76 34.47 17.76 44.76 35.58 55.04 17.76"/><polygon class="cls-5" points="55.04 17.76 34.47 17.76 44.76 35.58 55.04 17.76"/><polygon class="cls-4" points="13.9 53.4 -6.67 53.4 13.9 89.03 34.47 53.4 13.9 53.4"/><polygon class="cls-5" points="13.9 53.4 -6.67 53.4 13.9 89.03 34.47 53.4 13.9 53.4"/><polygon class="cls-4" points="-6.67 53.4 13.9 53.4 3.61 35.58 -6.67 53.4"/><polygon class="cls-4" points="-6.67 53.4 13.9 53.4 3.61 35.58 -6.67 53.4"/><polygon class="cls-5" points="-6.67 53.4 13.9 53.4 3.61 35.58 -6.67 53.4"/><polygon class="cls-5" points="13.9 53.4 34.47 53.4 24.19 35.58 13.9 53.4"/><polygon class="cls-4" points="13.9 53.4 34.47 53.4 24.19 35.58 13.9 53.4"/><polygon class="cls-5" points="13.9 53.4 34.47 53.4 24.19 35.58 13.9 53.4"/><polygon class="cls-4" points="13.9 17.76 3.61 35.58 13.9 53.4 24.19 35.58 13.9 17.76"/><polygon class="cls-5" points="13.9 17.76 3.61 35.58 13.9 53.4 24.19 35.58 13.9 17.76"/><polygon class="cls-4" points="13.9 17.76 3.61 35.58 13.9 53.4 24.19 35.58 13.9 17.76"/><polygon class="cls-5" points="13.9 17.76 3.61 35.58 13.9 53.4 24.19 35.58 13.9 17.76"/><polygon class="cls-6" points="55.04 89.03 96.19 89.03 75.61 53.4 55.04 89.03"/><polygon class="cls-6" points="75.61 17.76 65.33 35.58 75.61 53.4 85.9 35.58 75.61 17.76"/><polygon class="cls-6" points="75.61 17.76 65.33 35.58 75.61 53.4 85.9 35.58 75.61 17.76"/><polygon class="cls-5" points="75.61 17.76 55.04 17.76 65.33 35.58 75.61 17.76"/><polygon class="cls-6" points="75.61 17.76 55.04 17.76 65.33 35.58 75.61 17.76"/><polygon class="cls-6" points="75.61 17.76 55.04 17.76 65.33 35.58 75.61 17.76"/><polygon class="cls-6" points="96.19 17.76 75.61 17.76 85.9 35.58 96.19 17.76"/><polygon class="cls-7" points="96.19 17.76 75.61 17.76 85.9 35.58 96.19 17.76"/><polygon class="cls-6" points="96.19 17.76 75.61 17.76 85.9 35.58 96.19 17.76"/><polygon class="cls-5" points="55.04 53.4 34.47 53.4 55.04 89.03 75.61 53.4 55.04 53.4"/><polygon class="cls-6" points="55.04 53.4 34.47 53.4 55.04 89.03 75.61 53.4 55.04 53.4"/><polygon class="cls-5" points="34.47 53.4 55.04 53.4 44.76 35.58 34.47 53.4"/><polygon class="cls-5" points="34.47 53.4 55.04 53.4 44.76 35.58 34.47 53.4"/><polygon class="cls-6" points="34.47 53.4 55.04 53.4 44.76 35.58 34.47 53.4"/><polygon class="cls-6" points="55.04 53.4 75.61 53.4 65.33 35.58 55.04 53.4"/><polygon class="cls-5" points="55.04 53.4 75.61 53.4 65.33 35.58 55.04 53.4"/><polygon class="cls-6" points="55.04 53.4 75.61 53.4 65.33 35.58 55.04 53.4"/><polygon class="cls-5" points="55.04 17.76 44.76 35.58 55.04 53.4 65.33 35.58 55.04 17.76"/><polygon class="cls-6" points="55.04 17.76 44.76 35.58 55.04 53.4 65.33 35.58 55.04 17.76"/><polygon class="cls-5" points="55.04 17.76 44.76 35.58 55.04 53.4 65.33 35.58 55.04 17.76"/><polygon class="cls-6" points="55.04 17.76 44.76 35.58 55.04 53.4 65.33 35.58 55.04 17.76"/><polygon class="cls-7" points="96.19 89.03 137.33 89.03 116.76 53.4 96.19 89.03"/><polygon class="cls-7" points="116.76 17.76 106.47 35.58 116.76 53.4 127.04 35.58 116.76 17.76"/><polygon class="cls-7" points="116.76 17.76 106.47 35.58 116.76 53.4 127.04 35.58 116.76 17.76"/><polygon class="cls-6" points="116.76 17.76 96.19 17.76 106.47 35.58 116.76 17.76"/><polygon class="cls-7" points="116.76 17.76 96.19 17.76 106.47 35.58 116.76 17.76"/><polygon class="cls-7" points="116.76 17.76 96.19 17.76 106.47 35.58 116.76 17.76"/><polygon class="cls-7" points="137.33 17.76 116.76 17.76 127.04 35.58 137.33 17.76"/><polygon class="cls-4" points="137.33 17.76 116.76 17.76 127.04 35.58 137.33 17.76"/><polygon class="cls-7" points="137.33 17.76 116.76 17.76 127.04 35.58 137.33 17.76"/><polygon class="cls-6" points="96.19 53.4 75.61 53.4 96.19 89.03 116.76 53.4 96.19 53.4"/><polygon class="cls-7" points="96.19 53.4 75.61 53.4 96.19 89.03 116.76 53.4 96.19 53.4"/><polygon class="cls-6" points="75.61 53.4 96.19 53.4 85.9 35.58 75.61 53.4"/><polygon class="cls-6" points="75.61 53.4 96.19 53.4 85.9 35.58 75.61 53.4"/><polygon class="cls-7" points="75.61 53.4 96.19 53.4 85.9 35.58 75.61 53.4"/><polygon class="cls-7" points="96.19 53.4 116.76 53.4 106.47 35.58 96.19 53.4"/><polygon class="cls-6" points="96.19 53.4 116.76 53.4 106.47 35.58 96.19 53.4"/><polygon class="cls-7" points="96.19 53.4 116.76 53.4 106.47 35.58 96.19 53.4"/><polygon class="cls-6" points="96.19 17.76 85.9 35.58 96.19 53.4 106.47 35.58 96.19 17.76"/><polygon class="cls-7" points="96.19 17.76 85.9 35.58 96.19 53.4 106.47 35.58 96.19 17.76"/><polygon class="cls-6" points="96.19 17.76 85.9 35.58 96.19 53.4 106.47 35.58 96.19 17.76"/><polygon class="cls-7" points="96.19 17.76 85.9 35.58 96.19 53.4 106.47 35.58 96.19 17.76"/><polygon class="cls-4" points="137.33 89.03 178.47 89.03 157.9 53.4 137.33 89.03"/><polygon class="cls-4" points="157.9 17.76 147.62 35.58 157.9 53.4 168.19 35.58 157.9 17.76"/><polygon class="cls-4" points="157.9 17.76 147.62 35.58 157.9 53.4 168.19 35.58 157.9 17.76"/><polygon class="cls-7" points="157.9 17.76 137.33 17.76 147.62 35.58 157.9 17.76"/><polygon class="cls-4" points="157.9 17.76 137.33 17.76 147.62 35.58 157.9 17.76"/><polygon class="cls-4" points="157.9 17.76 137.33 17.76 147.62 35.58 157.9 17.76"/><polygon class="cls-4" points="178.47 17.76 157.9 17.76 168.19 35.58 178.47 17.76"/><polygon class="cls-5" points="178.47 17.76 157.9 17.76 168.19 35.58 178.47 17.76"/><polygon class="cls-4" points="178.47 17.76 157.9 17.76 168.19 35.58 178.47 17.76"/><polygon class="cls-7" points="137.33 53.4 116.76 53.4 137.33 89.03 157.9 53.4 137.33 53.4"/><polygon class="cls-4" points="137.33 53.4 116.76 53.4 137.33 89.03 157.9 53.4 137.33 53.4"/><polygon class="cls-7" points="116.76 53.4 137.33 53.4 127.04 35.58 116.76 53.4"/><polygon class="cls-7" points="116.76 53.4 137.33 53.4 127.04 35.58 116.76 53.4"/><polygon class="cls-4" points="116.76 53.4 137.33 53.4 127.04 35.58 116.76 53.4"/><polygon class="cls-4" points="137.33 53.4 157.9 53.4 147.62 35.58 137.33 53.4"/><polygon class="cls-7" points="137.33 53.4 157.9 53.4 147.62 35.58 137.33 53.4"/><polygon class="cls-4" points="137.33 53.4 157.9 53.4 147.62 35.58 137.33 53.4"/><polygon class="cls-7" points="137.33 17.76 127.04 35.58 137.33 53.4 147.62 35.58 137.33 17.76"/><polygon class="cls-4" points="137.33 17.76 127.04 35.58 137.33 53.4 147.62 35.58 137.33 17.76"/><polygon class="cls-7" points="137.33 17.76 127.04 35.58 137.33 53.4 147.62 35.58 137.33 17.76"/><polygon class="cls-4" points="137.33 17.76 127.04 35.58 137.33 53.4 147.62 35.58 137.33 17.76"/><polygon class="cls-5" points="178.47 89.03 219.62 89.03 199.04 53.4 178.47 89.03"/><polygon class="cls-5" points="199.04 17.76 188.76 35.58 199.04 53.4 209.33 35.58 199.04 17.76"/><polygon class="cls-5" points="199.04 17.76 188.76 35.58 199.04 53.4 209.33 35.58 199.04 17.76"/><polygon class="cls-4" points="199.04 17.76 178.47 17.76 188.76 35.58 199.04 17.76"/><polygon class="cls-5" points="199.04 17.76 178.47 17.76 188.76 35.58 199.04 17.76"/><polygon class="cls-5" points="199.04 17.76 178.47 17.76 188.76 35.58 199.04 17.76"/><polygon class="cls-5" points="219.62 17.76 199.04 17.76 209.33 35.58 219.62 17.76"/><polygon class="cls-6" points="219.62 17.76 199.04 17.76 209.33 35.58 219.62 17.76"/><polygon class="cls-5" points="219.62 17.76 199.04 17.76 209.33 35.58 219.62 17.76"/><polygon class="cls-4" points="178.47 53.4 157.9 53.4 178.47 89.03 199.04 53.4 178.47 53.4"/><polygon class="cls-5" points="178.47 53.4 157.9 53.4 178.47 89.03 199.04 53.4 178.47 53.4"/><polygon class="cls-4" points="157.9 53.4 178.47 53.4 168.19 35.58 157.9 53.4"/><polygon class="cls-4" points="157.9 53.4 178.47 53.4 168.19 35.58 157.9 53.4"/><polygon class="cls-5" points="157.9 53.4 178.47 53.4 168.19 35.58 157.9 53.4"/><polygon class="cls-5" points="178.47 53.4 199.04 53.4 188.76 35.58 178.47 53.4"/><polygon class="cls-4" points="178.47 53.4 199.04 53.4 188.76 35.58 178.47 53.4"/><polygon class="cls-5" points="178.47 53.4 199.04 53.4 188.76 35.58 178.47 53.4"/><polygon class="cls-4" points="178.47 17.76 168.19 35.58 178.47 53.4 188.76 35.58 178.47 17.76"/><polygon class="cls-5" points="178.47 17.76 168.19 35.58 178.47 53.4 188.76 35.58 178.47 17.76"/><polygon class="cls-4" points="178.47 17.76 168.19 35.58 178.47 53.4 188.76 35.58 178.47 17.76"/><polygon class="cls-5" points="178.47 17.76 168.19 35.58 178.47 53.4 188.76 35.58 178.47 17.76"/><polygon class="cls-6" points="219.62 89.03 260.76 89.03 240.19 53.4 219.62 89.03"/><polygon class="cls-6" points="240.19 17.76 229.9 35.58 240.19 53.4 250.47 35.58 240.19 17.76"/><polygon class="cls-6" points="240.19 17.76 229.9 35.58 240.19 53.4 250.47 35.58 240.19 17.76"/><polygon class="cls-5" points="240.19 17.76 219.62 17.76 229.9 35.58 240.19 17.76"/><polygon class="cls-6" points="240.19 17.76 219.62 17.76 229.9 35.58 240.19 17.76"/><polygon class="cls-6" points="240.19 17.76 219.62 17.76 229.9 35.58 240.19 17.76"/><polygon class="cls-6" points="260.76 17.76 240.19 17.76 250.47 35.58 260.76 17.76"/><polygon class="cls-7" points="260.76 17.76 240.19 17.76 250.47 35.58 260.76 17.76"/><polygon class="cls-6" points="260.76 17.76 240.19 17.76 250.47 35.58 260.76 17.76"/><polygon class="cls-5" points="219.62 53.4 199.04 53.4 219.62 89.03 240.19 53.4 219.62 53.4"/><polygon class="cls-6" points="219.62 53.4 199.04 53.4 219.62 89.03 240.19 53.4 219.62 53.4"/><polygon class="cls-5" points="199.04 53.4 219.62 53.4 209.33 35.58 199.04 53.4"/><polygon class="cls-5" points="199.04 53.4 219.62 53.4 209.33 35.58 199.04 53.4"/><polygon class="cls-6" points="199.04 53.4 219.62 53.4 209.33 35.58 199.04 53.4"/><polygon class="cls-6" points="219.62 53.4 240.19 53.4 229.9 35.58 219.62 53.4"/><polygon class="cls-5" points="219.62 53.4 240.19 53.4 229.9 35.58 219.62 53.4"/><polygon class="cls-6" points="219.62 53.4 240.19 53.4 229.9 35.58 219.62 53.4"/><polygon class="cls-5" points="219.62 17.76 209.33 35.58 219.62 53.4 229.9 35.58 219.62 17.76"/><polygon class="cls-6" points="219.62 17.76 209.33 35.58 219.62 53.4 229.9 35.58 219.62 17.76"/><polygon class="cls-5" points="219.62 17.76 209.33 35.58 219.62 53.4 229.9 35.58 219.62 17.76"/><polygon class="cls-6" points="219.62 17.76 209.33 35.58 219.62 53.4 229.9 35.58 219.62 17.76"/><polygon class="cls-7" points="260.76 89.03 301.9 89.03 281.33 53.4 260.76 89.03"/><polygon class="cls-7" points="281.33 17.76 271.05 35.58 281.33 53.4 291.62 35.58 281.33 17.76"/><polygon class="cls-7" points="281.33 17.76 271.05 35.58 281.33 53.4 291.62 35.58 281.33 17.76"/><polygon class="cls-6" points="281.33 17.76 260.76 17.76 271.05 35.58 281.33 17.76"/><polygon class="cls-7" points="281.33 17.76 260.76 17.76 271.05 35.58 281.33 17.76"/><polygon class="cls-7" points="281.33 17.76 260.76 17.76 271.05 35.58 281.33 17.76"/><polygon class="cls-7" points="301.9 17.76 281.33 17.76 291.62 35.58 301.9 17.76"/><polygon class="cls-4" points="301.9 17.76 281.33 17.76 291.62 35.58 301.9 17.76"/><polygon class="cls-7" points="301.9 17.76 281.33 17.76 291.62 35.58 301.9 17.76"/><polygon class="cls-6" points="260.76 53.4 240.19 53.4 260.76 89.03 281.33 53.4 260.76 53.4"/><polygon class="cls-7" points="260.76 53.4 240.19 53.4 260.76 89.03 281.33 53.4 260.76 53.4"/><polygon class="cls-6" points="240.19 53.4 260.76 53.4 250.47 35.58 240.19 53.4"/><polygon class="cls-6" points="240.19 53.4 260.76 53.4 250.47 35.58 240.19 53.4"/><polygon class="cls-7" points="240.19 53.4 260.76 53.4 250.47 35.58 240.19 53.4"/><polygon class="cls-7" points="260.76 53.4 281.33 53.4 271.05 35.58 260.76 53.4"/><polygon class="cls-6" points="260.76 53.4 281.33 53.4 271.05 35.58 260.76 53.4"/><polygon class="cls-7" points="260.76 53.4 281.33 53.4 271.05 35.58 260.76 53.4"/><polygon class="cls-6" points="260.76 17.76 250.47 35.58 260.76 53.4 271.05 35.58 260.76 17.76"/><polygon class="cls-7" points="260.76 17.76 250.47 35.58 260.76 53.4 271.05 35.58 260.76 17.76"/><polygon class="cls-6" points="260.76 17.76 250.47 35.58 260.76 53.4 271.05 35.58 260.76 17.76"/><polygon class="cls-7" points="260.76 17.76 250.47 35.58 260.76 53.4 271.05 35.58 260.76 17.76"/><polygon class="cls-4" points="301.9 89.03 343.05 89.03 322.47 53.4 301.9 89.03"/><polygon class="cls-4" points="322.47 17.76 312.19 35.58 322.47 53.4 332.76 35.58 322.47 17.76"/><polygon class="cls-4" points="322.47 17.76 312.19 35.58 322.47 53.4 332.76 35.58 322.47 17.76"/><polygon class="cls-7" points="322.47 17.76 301.9 17.76 312.19 35.58 322.47 17.76"/><polygon class="cls-4" points="322.47 17.76 301.9 17.76 312.19 35.58 322.47 17.76"/><polygon class="cls-4" points="322.47 17.76 301.9 17.76 312.19 35.58 322.47 17.76"/><polygon class="cls-4" points="343.05 17.76 322.47 17.76 332.76 35.58 343.05 17.76"/><polygon class="cls-5" points="343.05 17.76 322.47 17.76 332.76 35.58 343.05 17.76"/><polygon class="cls-4" points="343.05 17.76 322.47 17.76 332.76 35.58 343.05 17.76"/><polygon class="cls-7" points="301.9 53.4 281.33 53.4 301.9 89.03 322.47 53.4 301.9 53.4"/><polygon class="cls-4" points="301.9 53.4 281.33 53.4 301.9 89.03 322.47 53.4 301.9 53.4"/><polygon class="cls-7" points="281.33 53.4 301.9 53.4 291.62 35.58 281.33 53.4"/><polygon class="cls-7" points="281.33 53.4 301.9 53.4 291.62 35.58 281.33 53.4"/><polygon class="cls-4" points="281.33 53.4 301.9 53.4 291.62 35.58 281.33 53.4"/><polygon class="cls-4" points="301.9 53.4 322.47 53.4 312.19 35.58 301.9 53.4"/><polygon class="cls-7" points="301.9 53.4 322.47 53.4 312.19 35.58 301.9 53.4"/><polygon class="cls-4" points="301.9 53.4 322.47 53.4 312.19 35.58 301.9 53.4"/><polygon class="cls-7" points="301.9 17.76 291.62 35.58 301.9 53.4 312.19 35.58 301.9 17.76"/><polygon class="cls-4" points="301.9 17.76 291.62 35.58 301.9 53.4 312.19 35.58 301.9 17.76"/><polygon class="cls-7" points="301.9 17.76 291.62 35.58 301.9 53.4 312.19 35.58 301.9 17.76"/><polygon class="cls-4" points="301.9 17.76 291.62 35.58 301.9 53.4 312.19 35.58 301.9 17.76"/><polygon class="cls-5" points="343.05 89.03 384.19 89.03 363.62 53.4 343.05 89.03"/><polygon class="cls-5" points="363.62 17.76 353.33 35.58 363.62 53.4 373.9 35.58 363.62 17.76"/><polygon class="cls-5" points="363.62 17.76 353.33 35.58 363.62 53.4 373.9 35.58 363.62 17.76"/><polygon class="cls-4" points="363.62 17.76 343.05 17.76 353.33 35.58 363.62 17.76"/><polygon class="cls-5" points="363.62 17.76 343.05 17.76 353.33 35.58 363.62 17.76"/><polygon class="cls-5" points="363.62 17.76 343.05 17.76 353.33 35.58 363.62 17.76"/><polygon class="cls-5" points="384.19 17.76 384.19 17.76 363.62 17.76 373.9 35.58 384.19 17.76"/><polygon class="cls-6" points="384.19 17.76 384.19 17.76 363.62 17.76 373.9 35.58 384.19 17.76"/><polygon class="cls-5" points="384.19 17.76 384.19 17.76 363.62 17.76 373.9 35.58 384.19 17.76"/><polygon class="cls-4" points="343.05 53.4 322.47 53.4 343.05 89.03 363.62 53.4 343.05 53.4"/><polygon class="cls-5" points="343.05 53.4 322.47 53.4 343.05 89.03 363.62 53.4 343.05 53.4"/><polygon class="cls-4" points="322.47 53.4 343.05 53.4 332.76 35.58 322.47 53.4"/><polygon class="cls-4" points="322.47 53.4 343.05 53.4 332.76 35.58 322.47 53.4"/><polygon class="cls-5" points="322.47 53.4 343.05 53.4 332.76 35.58 322.47 53.4"/><polygon class="cls-5" points="343.05 53.4 363.62 53.4 353.33 35.58 343.05 53.4"/><polygon class="cls-4" points="343.05 53.4 363.62 53.4 353.33 35.58 343.05 53.4"/><polygon class="cls-5" points="343.05 53.4 363.62 53.4 353.33 35.58 343.05 53.4"/><polygon class="cls-4" points="343.05 17.76 332.76 35.58 343.05 53.4 353.33 35.58 343.05 17.76"/><polygon class="cls-5" points="343.05 17.76 332.76 35.58 343.05 53.4 353.33 35.58 343.05 17.76"/><polygon class="cls-4" points="343.05 17.76 332.76 35.58 343.05 53.4 353.33 35.58 343.05 17.76"/><polygon class="cls-5" points="343.05 17.76 332.76 35.58 343.05 53.4 353.33 35.58 343.05 17.76"/><polygon class="cls-6" points="384.19 89.03 425.33 89.03 404.76 53.4 384.19 89.03"/><polygon class="cls-6" points="404.76 17.76 394.48 35.58 404.76 53.4 415.05 35.58 404.76 17.76"/><polygon class="cls-6" points="404.76 17.76 394.48 35.58 404.76 53.4 415.05 35.58 404.76 17.76"/><polygon class="cls-5" points="404.76 17.76 384.19 17.76 384.19 17.76 394.48 35.58 404.76 17.76"/><polygon class="cls-6" points="404.76 17.76 384.19 17.76 384.19 17.76 394.48 35.58 404.76 17.76"/><polygon class="cls-6" points="404.76 17.76 384.19 17.76 384.19 17.76 394.48 35.58 404.76 17.76"/><polygon class="cls-6" points="425.33 17.76 404.76 17.76 415.05 35.58 425.33 17.76"/><polygon class="cls-7" points="425.33 17.76 404.76 17.76 415.05 35.58 425.33 17.76"/><polygon class="cls-6" points="425.33 17.76 404.76 17.76 415.05 35.58 425.33 17.76"/><polygon class="cls-5" points="384.19 53.4 384.19 53.4 363.62 53.4 384.19 89.03 384.19 89.03 404.76 53.4 384.19 53.4"/><polygon class="cls-6" points="384.19 53.4 384.19 53.4 363.62 53.4 384.19 89.03 384.19 89.03 404.76 53.4 384.19 53.4"/><polygon class="cls-5" points="363.62 53.4 384.19 53.4 373.9 35.58 363.62 53.4"/><polygon class="cls-5" points="363.62 53.4 384.19 53.4 373.9 35.58 363.62 53.4"/><polygon class="cls-6" points="363.62 53.4 384.19 53.4 373.9 35.58 363.62 53.4"/><polygon class="cls-6" points="384.19 53.4 404.76 53.4 394.48 35.58 384.19 53.4"/><polygon class="cls-5" points="384.19 53.4 404.76 53.4 394.48 35.58 384.19 53.4"/><polygon class="cls-6" points="384.19 53.4 404.76 53.4 394.48 35.58 384.19 53.4"/><polygon class="cls-5" points="384.19 17.76 373.9 35.58 384.19 53.4 384.19 53.4 394.48 35.58 384.19 17.76"/><polygon class="cls-6" points="384.19 17.76 373.9 35.58 384.19 53.4 384.19 53.4 394.48 35.58 384.19 17.76"/><polygon class="cls-5" points="384.19 17.76 373.9 35.58 384.19 53.4 384.19 53.4 394.48 35.58 384.19 17.76"/><polygon class="cls-6" points="384.19 17.76 373.9 35.58 384.19 53.4 384.19 53.4 394.48 35.58 384.19 17.76"/><polygon class="cls-7" points="425.33 89.03 466.48 89.03 445.9 53.4 425.33 89.03"/><polygon class="cls-7" points="445.9 17.76 435.62 35.58 445.9 53.4 456.19 35.58 445.9 17.76"/><polygon class="cls-7" points="445.9 17.76 435.62 35.58 445.9 53.4 456.19 35.58 445.9 17.76"/><polygon class="cls-6" points="445.9 17.76 425.33 17.76 435.62 35.58 445.9 17.76"/><polygon class="cls-7" points="445.9 17.76 425.33 17.76 435.62 35.58 445.9 17.76"/><polygon class="cls-7" points="445.9 17.76 425.33 17.76 435.62 35.58 445.9 17.76"/><polygon class="cls-7" points="466.48 17.76 445.9 17.76 456.19 35.58 466.48 17.76"/><polygon class="cls-4" points="466.48 17.76 445.9 17.76 456.19 35.58 466.48 17.76"/><polygon class="cls-7" points="466.48 17.76 445.9 17.76 456.19 35.58 466.48 17.76"/><polygon class="cls-6" points="425.33 53.4 404.76 53.4 425.33 89.03 445.9 53.4 425.33 53.4"/><polygon class="cls-7" points="425.33 53.4 404.76 53.4 425.33 89.03 445.9 53.4 425.33 53.4"/><polygon class="cls-6" points="404.76 53.4 425.33 53.4 415.05 35.58 404.76 53.4"/><polygon class="cls-6" points="404.76 53.4 425.33 53.4 415.05 35.58 404.76 53.4"/><polygon class="cls-7" points="404.76 53.4 425.33 53.4 415.05 35.58 404.76 53.4"/><polygon class="cls-7" points="425.33 53.4 445.9 53.4 435.62 35.58 425.33 53.4"/><polygon class="cls-6" points="425.33 53.4 445.9 53.4 435.62 35.58 425.33 53.4"/><polygon class="cls-7" points="425.33 53.4 445.9 53.4 435.62 35.58 425.33 53.4"/><polygon class="cls-6" points="425.33 17.76 415.05 35.58 425.33 53.4 435.62 35.58 425.33 17.76"/><polygon class="cls-7" points="425.33 17.76 415.05 35.58 425.33 53.4 435.62 35.58 425.33 17.76"/><polygon class="cls-6" points="425.33 17.76 415.05 35.58 425.33 53.4 435.62 35.58 425.33 17.76"/><polygon class="cls-7" points="425.33 17.76 415.05 35.58 425.33 53.4 435.62 35.58 425.33 17.76"/><polygon class="cls-4" points="507.62 53.4 487.05 53.4 466.48 89.03 507.62 89.03 528.19 53.4 517.9 35.58 507.62 53.4"/><polygon class="cls-4" points="487.05 17.76 476.76 35.58 487.05 53.4 507.62 53.4 517.9 35.58 507.62 17.76 487.05 17.76"/><polygon class="cls-4" points="487.05 17.76 476.76 35.58 487.05 53.4 507.62 53.4 517.9 35.58 507.62 17.76 487.05 17.76"/><polygon class="cls-7" points="487.05 17.76 466.48 17.76 476.76 35.58 487.05 17.76"/><polygon class="cls-4" points="487.05 17.76 466.48 17.76 476.76 35.58 487.05 17.76"/><polygon class="cls-4" points="487.05 17.76 466.48 17.76 476.76 35.58 487.05 17.76"/><polygon class="cls-7" points="466.48 53.4 445.9 53.4 466.48 89.03 487.05 53.4 466.48 53.4"/><polygon class="cls-4" points="466.48 53.4 445.9 53.4 466.48 89.03 487.05 53.4 466.48 53.4"/><polygon class="cls-7" points="445.9 53.4 466.48 53.4 456.19 35.58 445.9 53.4"/><polygon class="cls-7" points="445.9 53.4 466.48 53.4 456.19 35.58 445.9 53.4"/><polygon class="cls-4" points="445.9 53.4 466.48 53.4 456.19 35.58 445.9 53.4"/><polygon class="cls-4" points="466.48 53.4 487.05 53.4 476.76 35.58 466.48 53.4"/><polygon class="cls-7" points="466.48 53.4 487.05 53.4 476.76 35.58 466.48 53.4"/><polygon class="cls-4" points="466.48 53.4 487.05 53.4 476.76 35.58 466.48 53.4"/><polygon class="cls-7" points="466.48 17.76 456.19 35.58 466.48 53.4 476.76 35.58 466.48 17.76"/><polygon class="cls-4" points="466.48 17.76 456.19 35.58 466.48 53.4 476.76 35.58 466.48 17.76"/><polygon class="cls-7" points="466.48 17.76 456.19 35.58 466.48 53.4 476.76 35.58 466.48 17.76"/><polygon class="cls-4" points="466.48 17.76 456.19 35.58 466.48 53.4 476.76 35.58 466.48 17.76"/></g><g class="cls-8"><polygon class="cls-5" points="192.87 16.55 215.65 -22.91 215.65 -22.91 170.09 -22.91 147.31 16.55 158.7 36.27 170.09 16.55 192.87 16.55"/><polygon class="cls-6" points="238.42 16.55 261.2 -22.91 215.65 -22.91 215.65 -22.91 238.42 16.55"/><polygon class="cls-5" points="238.42 16.55 215.65 -22.91 192.87 16.55 215.65 16.55 238.42 16.55"/><polygon class="cls-6" points="238.42 16.55 215.65 -22.91 192.87 16.55 215.65 16.55 238.42 16.55"/><polygon class="cls-7" points="306.76 -22.91 261.2 -22.91 283.98 16.55 306.76 -22.91"/><polygon class="cls-6" points="261.2 16.55 283.98 16.55 261.2 -22.91 238.42 16.55 261.2 16.55"/><polygon class="cls-7" points="261.2 16.55 283.98 16.55 261.2 -22.91 238.42 16.55 261.2 16.55"/><polygon class="cls-4" points="352.31 -22.91 306.76 -22.91 329.54 16.55 352.31 -22.91"/><polygon class="cls-7" points="306.76 16.55 329.54 16.55 306.76 -22.91 283.98 16.55 306.76 16.55"/><polygon class="cls-4" points="306.76 16.55 329.54 16.55 306.76 -22.91 283.98 16.55 306.76 16.55"/><polygon class="cls-5" points="397.87 -22.91 352.31 -22.91 375.09 16.55 397.87 -22.91"/><polygon class="cls-4" points="352.31 16.55 375.09 16.55 352.31 -22.91 329.54 16.55 352.31 16.55"/><polygon class="cls-5" points="352.31 16.55 375.09 16.55 352.31 -22.91 329.54 16.55 352.31 16.55"/><polygon class="cls-6" points="443.43 -22.91 397.87 -22.91 420.65 16.55 443.43 -22.91"/><polygon class="cls-5" points="397.87 16.55 420.65 16.55 397.87 -22.91 375.09 16.55 397.87 16.55"/><polygon class="cls-6" points="397.87 16.55 420.65 16.55 397.87 -22.91 375.09 16.55 397.87 16.55"/><polygon class="cls-7" points="488.98 -22.91 443.43 -22.91 466.2 16.55 488.98 -22.91"/><polygon class="cls-6" points="443.43 16.55 466.2 16.55 443.43 -22.91 420.65 16.55 443.43 16.55"/><polygon class="cls-7" points="443.43 16.55 466.2 16.55 443.43 -22.91 420.65 16.55 443.43 16.55"/><polygon class="cls-4" points="534.54 -22.91 488.98 -22.91 511.76 16.55 534.54 -22.91"/><polygon class="cls-7" points="488.98 16.55 511.76 16.55 488.98 -22.91 466.2 16.55 488.98 16.55"/><polygon class="cls-4" points="488.98 16.55 511.76 16.55 488.98 -22.91 466.2 16.55 488.98 16.55"/><polygon class="cls-5" points="580.09 -22.91 534.54 -22.91 557.32 16.55 580.09 -22.91"/><polygon class="cls-4" points="534.54 16.55 557.32 16.55 534.54 -22.91 511.76 16.55 534.54 16.55"/><polygon class="cls-5" points="534.54 16.55 557.32 16.55 534.54 -22.91 511.76 16.55 534.54 16.55"/><polygon class="cls-6" points="625.65 -22.91 580.09 -22.91 602.87 16.55 625.65 -22.91"/><polygon class="cls-5" points="580.09 16.55 602.87 16.55 580.09 -22.91 557.32 16.55 580.09 16.55"/><polygon class="cls-6" points="580.09 16.55 602.87 16.55 580.09 -22.91 557.32 16.55 580.09 16.55"/><polygon class="cls-7" points="671.21 -22.91 625.65 -22.91 648.43 16.55 671.21 -22.91"/><polygon class="cls-6" points="625.65 16.55 648.43 16.55 625.65 -22.91 602.87 16.55 625.65 16.55"/><polygon class="cls-7" points="625.65 16.55 648.43 16.55 625.65 -22.91 602.87 16.55 625.65 16.55"/><polygon class="cls-4" points="716.76 -22.91 671.21 -22.91 693.99 16.55 716.76 -22.91"/><polygon class="cls-7" points="671.21 16.55 693.99 16.55 671.21 -22.91 648.43 16.55 671.21 16.55"/><polygon class="cls-4" points="671.21 16.55 693.99 16.55 671.21 -22.91 648.43 16.55 671.21 16.55"/><polygon class="cls-5" points="170.09 56 158.7 36.27 147.31 56 170.09 95.45 215.65 95.45 192.87 56 170.09 56"/><polygon class="cls-5" points="192.87 56 204.26 36.27 192.87 16.55 170.09 16.55 158.7 36.27 170.09 56 192.87 56"/><polygon class="cls-5" points="192.87 56 204.26 36.27 192.87 16.55 170.09 16.55 158.7 36.27 170.09 56 192.87 56"/><polygon class="cls-5" points="215.65 16.55 192.87 16.55 204.26 36.27 215.65 16.55 215.65 16.55"/><polygon class="cls-6" points="215.65 16.55 192.87 16.55 204.26 36.27 215.65 16.55 215.65 16.55"/><polygon class="cls-5" points="215.65 16.55 192.87 16.55 204.26 36.27 215.65 16.55 215.65 16.55"/><polygon class="cls-6" points="215.65 95.45 261.2 95.45 238.42 56 215.65 95.45"/><polygon class="cls-6" points="238.42 16.55 227.03 36.27 238.42 56 249.81 36.27 238.42 16.55"/><polygon class="cls-6" points="238.42 16.55 227.03 36.27 238.42 56 249.81 36.27 238.42 16.55"/><polygon class="cls-5" points="215.65 16.55 227.03 36.27 238.42 16.55 215.65 16.55 215.65 16.55"/><polygon class="cls-6" points="215.65 16.55 227.03 36.27 238.42 16.55 215.65 16.55 215.65 16.55"/><polygon class="cls-6" points="215.65 16.55 227.03 36.27 238.42 16.55 215.65 16.55 215.65 16.55"/><polygon class="cls-6" points="261.2 16.55 238.42 16.55 249.81 36.27 261.2 16.55"/><polygon class="cls-7" points="261.2 16.55 238.42 16.55 249.81 36.27 261.2 16.55"/><polygon class="cls-6" points="261.2 16.55 238.42 16.55 249.81 36.27 261.2 16.55"/><polygon class="cls-5" points="215.65 56 192.87 56 215.65 95.45 238.42 56 215.65 56"/><polygon class="cls-6" points="215.65 56 192.87 56 215.65 95.45 238.42 56 215.65 56"/><polygon class="cls-5" points="192.87 56 215.65 56 204.26 36.27 192.87 56"/><polygon class="cls-5" points="192.87 56 215.65 56 204.26 36.27 192.87 56"/><polygon class="cls-6" points="192.87 56 215.65 56 204.26 36.27 192.87 56"/><polygon class="cls-6" points="215.65 56 238.42 56 227.03 36.27 215.65 56"/><polygon class="cls-5" points="215.65 56 238.42 56 227.03 36.27 215.65 56"/><polygon class="cls-6" points="215.65 56 238.42 56 227.03 36.27 215.65 56"/><polygon class="cls-5" points="215.65 16.55 204.26 36.27 215.65 56 227.03 36.27 215.65 16.55"/><polygon class="cls-6" points="215.65 16.55 204.26 36.27 215.65 56 227.03 36.27 215.65 16.55"/><polygon class="cls-5" points="215.65 16.55 204.26 36.27 215.65 56 227.03 36.27 215.65 16.55"/><polygon class="cls-6" points="215.65 16.55 204.26 36.27 215.65 56 227.03 36.27 215.65 16.55"/><polygon class="cls-7" points="261.2 95.45 306.76 95.45 283.98 56 261.2 95.45"/><polygon class="cls-7" points="283.98 16.55 272.59 36.27 283.98 56 295.37 36.27 283.98 16.55"/><polygon class="cls-7" points="283.98 16.55 272.59 36.27 283.98 56 295.37 36.27 283.98 16.55"/><polygon class="cls-6" points="283.98 16.55 261.2 16.55 272.59 36.27 283.98 16.55"/><polygon class="cls-7" points="283.98 16.55 261.2 16.55 272.59 36.27 283.98 16.55"/><polygon class="cls-7" points="283.98 16.55 261.2 16.55 272.59 36.27 283.98 16.55"/><polygon class="cls-7" points="306.76 16.55 283.98 16.55 295.37 36.27 306.76 16.55"/><polygon class="cls-4" points="306.76 16.55 283.98 16.55 295.37 36.27 306.76 16.55"/><polygon class="cls-7" points="306.76 16.55 283.98 16.55 295.37 36.27 306.76 16.55"/><polygon class="cls-6" points="261.2 56 238.42 56 261.2 95.45 283.98 56 261.2 56"/><polygon class="cls-7" points="261.2 56 238.42 56 261.2 95.45 283.98 56 261.2 56"/><polygon class="cls-6" points="238.42 56 261.2 56 249.81 36.27 238.42 56"/><polygon class="cls-6" points="238.42 56 261.2 56 249.81 36.27 238.42 56"/><polygon class="cls-7" points="238.42 56 261.2 56 249.81 36.27 238.42 56"/><polygon class="cls-7" points="261.2 56 283.98 56 272.59 36.27 261.2 56"/><polygon class="cls-6" points="261.2 56 283.98 56 272.59 36.27 261.2 56"/><polygon class="cls-7" points="261.2 56 283.98 56 272.59 36.27 261.2 56"/><polygon class="cls-6" points="261.2 16.55 249.81 36.27 261.2 56 272.59 36.27 261.2 16.55"/><polygon class="cls-7" points="261.2 16.55 249.81 36.27 261.2 56 272.59 36.27 261.2 16.55"/><polygon class="cls-6" points="261.2 16.55 249.81 36.27 261.2 56 272.59 36.27 261.2 16.55"/><polygon class="cls-7" points="261.2 16.55 249.81 36.27 261.2 56 272.59 36.27 261.2 16.55"/><polygon class="cls-4" points="306.76 95.45 352.31 95.45 329.54 56 306.76 95.45"/><polygon class="cls-4" points="329.54 16.55 318.15 36.27 329.54 56 340.92 36.27 329.54 16.55"/><polygon class="cls-4" points="329.54 16.55 318.15 36.27 329.54 56 340.92 36.27 329.54 16.55"/><polygon class="cls-7" points="329.54 16.55 306.76 16.55 318.15 36.27 329.54 16.55"/><polygon class="cls-4" points="329.54 16.55 306.76 16.55 318.15 36.27 329.54 16.55"/><polygon class="cls-4" points="329.54 16.55 306.76 16.55 318.15 36.27 329.54 16.55"/><polygon class="cls-4" points="352.31 16.55 329.54 16.55 340.92 36.27 352.31 16.55"/><polygon class="cls-5" points="352.31 16.55 329.54 16.55 340.92 36.27 352.31 16.55"/><polygon class="cls-4" points="352.31 16.55 329.54 16.55 340.92 36.27 352.31 16.55"/><polygon class="cls-7" points="306.76 56 283.98 56 306.76 95.45 329.54 56 306.76 56"/><polygon class="cls-4" points="306.76 56 283.98 56 306.76 95.45 329.54 56 306.76 56"/><polygon class="cls-7" points="283.98 56 306.76 56 295.37 36.27 283.98 56"/><polygon class="cls-7" points="283.98 56 306.76 56 295.37 36.27 283.98 56"/><polygon class="cls-4" points="283.98 56 306.76 56 295.37 36.27 283.98 56"/><polygon class="cls-4" points="306.76 56 329.54 56 318.15 36.27 306.76 56"/><polygon class="cls-7" points="306.76 56 329.54 56 318.15 36.27 306.76 56"/><polygon class="cls-4" points="306.76 56 329.54 56 318.15 36.27 306.76 56"/><polygon class="cls-7" points="306.76 16.55 295.37 36.27 306.76 56 318.15 36.27 306.76 16.55"/><polygon class="cls-4" points="306.76 16.55 295.37 36.27 306.76 56 318.15 36.27 306.76 16.55"/><polygon class="cls-7" points="306.76 16.55 295.37 36.27 306.76 56 318.15 36.27 306.76 16.55"/><polygon class="cls-4" points="306.76 16.55 295.37 36.27 306.76 56 318.15 36.27 306.76 16.55"/><polygon class="cls-5" points="352.31 95.45 397.87 95.45 375.09 56 352.31 95.45"/><polygon class="cls-5" points="375.09 16.55 363.7 36.27 375.09 56 386.48 36.27 375.09 16.55"/><polygon class="cls-5" points="375.09 16.55 363.7 36.27 375.09 56 386.48 36.27 375.09 16.55"/><polygon class="cls-4" points="375.09 16.55 352.31 16.55 363.7 36.27 375.09 16.55"/><polygon class="cls-5" points="375.09 16.55 352.31 16.55 363.7 36.27 375.09 16.55"/><polygon class="cls-5" points="375.09 16.55 352.31 16.55 363.7 36.27 375.09 16.55"/><polygon class="cls-5" points="397.87 16.55 375.09 16.55 386.48 36.27 397.87 16.55"/><polygon class="cls-6" points="397.87 16.55 375.09 16.55 386.48 36.27 397.87 16.55"/><polygon class="cls-5" points="397.87 16.55 375.09 16.55 386.48 36.27 397.87 16.55"/><polygon class="cls-4" points="352.31 56 329.54 56 352.31 95.45 375.09 56 352.31 56"/><polygon class="cls-5" points="352.31 56 329.54 56 352.31 95.45 375.09 56 352.31 56"/><polygon class="cls-4" points="329.54 56 352.31 56 340.92 36.27 329.54 56"/><polygon class="cls-4" points="329.54 56 352.31 56 340.92 36.27 329.54 56"/><polygon class="cls-5" points="329.54 56 352.31 56 340.92 36.27 329.54 56"/><polygon class="cls-5" points="352.31 56 375.09 56 363.7 36.27 352.31 56"/><polygon class="cls-4" points="352.31 56 375.09 56 363.7 36.27 352.31 56"/><polygon class="cls-5" points="352.31 56 375.09 56 363.7 36.27 352.31 56"/><polygon class="cls-4" points="352.31 16.55 340.92 36.27 352.31 56 363.7 36.27 352.31 16.55"/><polygon class="cls-5" points="352.31 16.55 340.92 36.27 352.31 56 363.7 36.27 352.31 16.55"/><polygon class="cls-4" points="352.31 16.55 340.92 36.27 352.31 56 363.7 36.27 352.31 16.55"/><polygon class="cls-5" points="352.31 16.55 340.92 36.27 352.31 56 363.7 36.27 352.31 16.55"/><polygon class="cls-6" points="397.87 95.45 443.43 95.45 420.65 56 397.87 95.45"/><polygon class="cls-6" points="420.65 16.55 409.26 36.27 420.65 56 432.04 36.27 420.65 16.55"/><polygon class="cls-6" points="420.65 16.55 409.26 36.27 420.65 56 432.04 36.27 420.65 16.55"/><polygon class="cls-5" points="420.65 16.55 397.87 16.55 409.26 36.27 420.65 16.55"/><polygon class="cls-6" points="420.65 16.55 397.87 16.55 409.26 36.27 420.65 16.55"/><polygon class="cls-6" points="420.65 16.55 397.87 16.55 409.26 36.27 420.65 16.55"/><polygon class="cls-6" points="443.43 16.55 420.65 16.55 432.04 36.27 443.43 16.55"/><polygon class="cls-7" points="443.43 16.55 420.65 16.55 432.04 36.27 443.43 16.55"/><polygon class="cls-6" points="443.43 16.55 420.65 16.55 432.04 36.27 443.43 16.55"/><polygon class="cls-5" points="397.87 56 375.09 56 397.87 95.45 420.65 56 397.87 56"/><polygon class="cls-6" points="397.87 56 375.09 56 397.87 95.45 420.65 56 397.87 56"/><polygon class="cls-5" points="375.09 56 397.87 56 386.48 36.27 375.09 56"/><polygon class="cls-5" points="375.09 56 397.87 56 386.48 36.27 375.09 56"/><polygon class="cls-6" points="375.09 56 397.87 56 386.48 36.27 375.09 56"/><polygon class="cls-6" points="397.87 56 420.65 56 409.26 36.27 397.87 56"/><polygon class="cls-5" points="397.87 56 420.65 56 409.26 36.27 397.87 56"/><polygon class="cls-6" points="397.87 56 420.65 56 409.26 36.27 397.87 56"/><polygon class="cls-5" points="397.87 16.55 386.48 36.27 397.87 56 409.26 36.27 397.87 16.55"/><polygon class="cls-6" points="397.87 16.55 386.48 36.27 397.87 56 409.26 36.27 397.87 16.55"/><polygon class="cls-5" points="397.87 16.55 386.48 36.27 397.87 56 409.26 36.27 397.87 16.55"/><polygon class="cls-6" points="397.87 16.55 386.48 36.27 397.87 56 409.26 36.27 397.87 16.55"/><polygon class="cls-7" points="443.43 95.45 488.98 95.45 466.2 56 443.43 95.45"/><polygon class="cls-7" points="466.2 16.55 454.81 36.27 466.2 56 477.59 36.27 466.2 16.55"/><polygon class="cls-7" points="466.2 16.55 454.81 36.27 466.2 56 477.59 36.27 466.2 16.55"/><polygon class="cls-6" points="466.2 16.55 443.43 16.55 454.81 36.27 466.2 16.55"/><polygon class="cls-7" points="466.2 16.55 443.43 16.55 454.81 36.27 466.2 16.55"/><polygon class="cls-7" points="466.2 16.55 443.43 16.55 454.81 36.27 466.2 16.55"/><polygon class="cls-7" points="488.98 16.55 466.2 16.55 477.59 36.27 488.98 16.55"/><polygon class="cls-4" points="488.98 16.55 466.2 16.55 477.59 36.27 488.98 16.55"/><polygon class="cls-7" points="488.98 16.55 466.2 16.55 477.59 36.27 488.98 16.55"/><polygon class="cls-6" points="443.43 56 420.65 56 443.43 95.45 466.2 56 443.43 56"/><polygon class="cls-7" points="443.43 56 420.65 56 443.43 95.45 466.2 56 443.43 56"/><polygon class="cls-6" points="420.65 56 443.43 56 432.04 36.27 420.65 56"/><polygon class="cls-6" points="420.65 56 443.43 56 432.04 36.27 420.65 56"/><polygon class="cls-7" points="420.65 56 443.43 56 432.04 36.27 420.65 56"/><polygon class="cls-7" points="443.43 56 466.2 56 454.81 36.27 443.43 56"/><polygon class="cls-6" points="443.43 56 466.2 56 454.81 36.27 443.43 56"/><polygon class="cls-7" points="443.43 56 466.2 56 454.81 36.27 443.43 56"/><polygon class="cls-6" points="443.43 16.55 432.04 36.27 443.43 56 454.81 36.27 443.43 16.55"/><polygon class="cls-7" points="443.43 16.55 432.04 36.27 443.43 56 454.81 36.27 443.43 16.55"/><polygon class="cls-6" points="443.43 16.55 432.04 36.27 443.43 56 454.81 36.27 443.43 16.55"/><polygon class="cls-7" points="443.43 16.55 432.04 36.27 443.43 56 454.81 36.27 443.43 16.55"/><polygon class="cls-4" points="488.98 95.45 534.54 95.45 511.76 56 488.98 95.45"/><polygon class="cls-4" points="511.76 16.55 500.37 36.27 511.76 56 523.15 36.27 511.76 16.55"/><polygon class="cls-4" points="511.76 16.55 500.37 36.27 511.76 56 523.15 36.27 511.76 16.55"/><polygon class="cls-7" points="511.76 16.55 488.98 16.55 500.37 36.27 511.76 16.55"/><polygon class="cls-4" points="511.76 16.55 488.98 16.55 500.37 36.27 511.76 16.55"/><polygon class="cls-4" points="511.76 16.55 488.98 16.55 500.37 36.27 511.76 16.55"/><polygon class="cls-4" points="534.54 16.55 511.76 16.55 523.15 36.27 534.54 16.55"/><polygon class="cls-5" points="534.54 16.55 511.76 16.55 523.15 36.27 534.54 16.55"/><polygon class="cls-4" points="534.54 16.55 511.76 16.55 523.15 36.27 534.54 16.55"/><polygon class="cls-7" points="488.98 56 466.2 56 488.98 95.45 511.76 56 488.98 56"/><polygon class="cls-4" points="488.98 56 466.2 56 488.98 95.45 511.76 56 488.98 56"/><polygon class="cls-7" points="466.2 56 488.98 56 477.59 36.27 466.2 56"/><polygon class="cls-7" points="466.2 56 488.98 56 477.59 36.27 466.2 56"/><polygon class="cls-4" points="466.2 56 488.98 56 477.59 36.27 466.2 56"/><polygon class="cls-4" points="488.98 56 511.76 56 500.37 36.27 488.98 56"/><polygon class="cls-7" points="488.98 56 511.76 56 500.37 36.27 488.98 56"/><polygon class="cls-4" points="488.98 56 511.76 56 500.37 36.27 488.98 56"/><polygon class="cls-7" points="488.98 16.55 477.59 36.27 488.98 56 500.37 36.27 488.98 16.55"/><polygon class="cls-4" points="488.98 16.55 477.59 36.27 488.98 56 500.37 36.27 488.98 16.55"/><polygon class="cls-7" points="488.98 16.55 477.59 36.27 488.98 56 500.37 36.27 488.98 16.55"/><polygon class="cls-4" points="488.98 16.55 477.59 36.27 488.98 56 500.37 36.27 488.98 16.55"/><polygon class="cls-5" points="534.54 95.45 580.09 95.45 557.32 56 534.54 95.45"/><polygon class="cls-5" points="557.32 16.55 545.93 36.27 557.32 56 568.71 36.27 557.32 16.55"/><polygon class="cls-5" points="557.32 16.55 545.93 36.27 557.32 56 568.71 36.27 557.32 16.55"/><polygon class="cls-4" points="557.32 16.55 534.54 16.55 545.93 36.27 557.32 16.55"/><polygon class="cls-5" points="557.32 16.55 534.54 16.55 545.93 36.27 557.32 16.55"/><polygon class="cls-5" points="557.32 16.55 534.54 16.55 545.93 36.27 557.32 16.55"/><polygon class="cls-5" points="580.09 16.55 557.32 16.55 568.71 36.27 580.09 16.55"/><polygon class="cls-6" points="580.09 16.55 557.32 16.55 568.71 36.27 580.09 16.55"/><polygon class="cls-5" points="580.09 16.55 557.32 16.55 568.71 36.27 580.09 16.55"/><polygon class="cls-4" points="534.54 56 511.76 56 534.54 95.45 557.32 56 534.54 56"/><polygon class="cls-5" points="534.54 56 511.76 56 534.54 95.45 557.32 56 534.54 56"/><polygon class="cls-4" points="511.76 56 534.54 56 523.15 36.27 511.76 56"/><polygon class="cls-4" points="511.76 56 534.54 56 523.15 36.27 511.76 56"/><polygon class="cls-5" points="511.76 56 534.54 56 523.15 36.27 511.76 56"/><polygon class="cls-5" points="534.54 56 557.32 56 545.93 36.27 534.54 56"/><polygon class="cls-4" points="534.54 56 557.32 56 545.93 36.27 534.54 56"/><polygon class="cls-5" points="534.54 56 557.32 56 545.93 36.27 534.54 56"/><polygon class="cls-4" points="534.54 16.55 523.15 36.27 534.54 56 545.93 36.27 534.54 16.55"/><polygon class="cls-5" points="534.54 16.55 523.15 36.27 534.54 56 545.93 36.27 534.54 16.55"/><polygon class="cls-4" points="534.54 16.55 523.15 36.27 534.54 56 545.93 36.27 534.54 16.55"/><polygon class="cls-5" points="534.54 16.55 523.15 36.27 534.54 56 545.93 36.27 534.54 16.55"/><polygon class="cls-6" points="580.09 95.45 625.65 95.45 602.87 56 580.09 95.45"/><polygon class="cls-6" points="602.87 16.55 591.48 36.27 602.87 56 614.26 36.27 602.87 16.55"/><polygon class="cls-6" points="602.87 16.55 591.48 36.27 602.87 56 614.26 36.27 602.87 16.55"/><polygon class="cls-5" points="602.87 16.55 580.09 16.55 591.48 36.27 602.87 16.55"/><polygon class="cls-6" points="602.87 16.55 580.09 16.55 591.48 36.27 602.87 16.55"/><polygon class="cls-6" points="602.87 16.55 580.09 16.55 591.48 36.27 602.87 16.55"/><polygon class="cls-6" points="625.65 16.55 602.87 16.55 614.26 36.27 625.65 16.55"/><polygon class="cls-7" points="625.65 16.55 602.87 16.55 614.26 36.27 625.65 16.55"/><polygon class="cls-6" points="625.65 16.55 602.87 16.55 614.26 36.27 625.65 16.55"/><polygon class="cls-5" points="580.09 56 557.32 56 580.09 95.45 602.87 56 580.09 56"/><polygon class="cls-6" points="580.09 56 557.32 56 580.09 95.45 602.87 56 580.09 56"/><polygon class="cls-5" points="557.32 56 580.09 56 568.71 36.27 557.32 56"/><polygon class="cls-5" points="557.32 56 580.09 56 568.71 36.27 557.32 56"/><polygon class="cls-6" points="557.32 56 580.09 56 568.71 36.27 557.32 56"/><polygon class="cls-6" points="580.09 56 602.87 56 591.48 36.27 580.09 56"/><polygon class="cls-5" points="580.09 56 602.87 56 591.48 36.27 580.09 56"/><polygon class="cls-6" points="580.09 56 602.87 56 591.48 36.27 580.09 56"/><polygon class="cls-5" points="580.09 16.55 568.71 36.27 580.09 56 591.48 36.27 580.09 16.55"/><polygon class="cls-6" points="580.09 16.55 568.71 36.27 580.09 56 591.48 36.27 580.09 16.55"/><polygon class="cls-5" points="580.09 16.55 568.71 36.27 580.09 56 591.48 36.27 580.09 16.55"/><polygon class="cls-6" points="580.09 16.55 568.71 36.27 580.09 56 591.48 36.27 580.09 16.55"/><polygon class="cls-7" points="625.65 95.45 671.21 95.45 648.43 56 625.65 95.45"/><polygon class="cls-7" points="648.43 16.55 637.04 36.27 648.43 56 659.82 36.27 648.43 16.55"/><polygon class="cls-7" points="648.43 16.55 637.04 36.27 648.43 56 659.82 36.27 648.43 16.55"/><polygon class="cls-6" points="648.43 16.55 625.65 16.55 637.04 36.27 648.43 16.55"/><polygon class="cls-7" points="648.43 16.55 625.65 16.55 637.04 36.27 648.43 16.55"/><polygon class="cls-7" points="648.43 16.55 625.65 16.55 637.04 36.27 648.43 16.55"/><polygon class="cls-7" points="671.21 16.55 648.43 16.55 659.82 36.27 671.21 16.55"/><polygon class="cls-4" points="671.21 16.55 648.43 16.55 659.82 36.27 671.21 16.55"/><polygon class="cls-7" points="671.21 16.55 648.43 16.55 659.82 36.27 671.21 16.55"/><polygon class="cls-6" points="625.65 56 602.87 56 625.65 95.45 648.43 56 625.65 56"/><polygon class="cls-7" points="625.65 56 602.87 56 625.65 95.45 648.43 56 625.65 56"/><polygon class="cls-6" points="602.87 56 625.65 56 614.26 36.27 602.87 56"/><polygon class="cls-6" points="602.87 56 625.65 56 614.26 36.27 602.87 56"/><polygon class="cls-7" points="602.87 56 625.65 56 614.26 36.27 602.87 56"/><polygon class="cls-7" points="625.65 56 648.43 56 637.04 36.27 625.65 56"/><polygon class="cls-6" points="625.65 56 648.43 56 637.04 36.27 625.65 56"/><polygon class="cls-7" points="625.65 56 648.43 56 637.04 36.27 625.65 56"/><polygon class="cls-6" points="625.65 16.55 614.26 36.27 625.65 56 637.04 36.27 625.65 16.55"/><polygon class="cls-7" points="625.65 16.55 614.26 36.27 625.65 56 637.04 36.27 625.65 16.55"/><polygon class="cls-6" points="625.65 16.55 614.26 36.27 625.65 56 637.04 36.27 625.65 16.55"/><polygon class="cls-7" points="625.65 16.55 614.26 36.27 625.65 56 637.04 36.27 625.65 16.55"/><polygon class="cls-4" points="671.21 95.45 716.76 95.45 693.99 56 671.21 95.45"/><polygon class="cls-7" points="693.99 16.55 671.21 16.55 682.6 36.27 693.99 16.55"/><polygon class="cls-4" points="693.99 16.55 671.21 16.55 682.6 36.27 693.99 16.55"/><polygon class="cls-4" points="693.99 16.55 671.21 16.55 682.6 36.27 693.99 16.55"/><polygon class="cls-7" points="671.21 56 648.43 56 671.21 95.45 693.99 56 671.21 56"/><polygon class="cls-4" points="671.21 56 648.43 56 671.21 95.45 693.99 56 671.21 56"/><polygon class="cls-7" points="648.43 56 671.21 56 659.82 36.27 648.43 56"/><polygon class="cls-7" points="648.43 56 671.21 56 659.82 36.27 648.43 56"/><polygon class="cls-4" points="648.43 56 671.21 56 659.82 36.27 648.43 56"/><polygon class="cls-4" points="671.21 56 693.99 56 682.6 36.27 671.21 56"/><polygon class="cls-7" points="671.21 56 693.99 56 682.6 36.27 671.21 56"/><polygon class="cls-4" points="671.21 56 693.99 56 682.6 36.27 671.21 56"/><polygon class="cls-7" points="671.21 16.55 659.82 36.27 671.21 56 682.6 36.27 671.21 16.55"/><polygon class="cls-4" points="671.21 16.55 659.82 36.27 671.21 56 682.6 36.27 671.21 16.55"/><polygon class="cls-7" points="671.21 16.55 659.82 36.27 671.21 56 682.6 36.27 671.21 16.55"/><polygon class="cls-4" points="671.21 16.55 659.82 36.27 671.21 56 682.6 36.27 671.21 16.55"/></g></g></svg>