<?xml version="1.0" encoding="utf-8"?>
<!-- Generator: Adobe Illustrator 27.5.0, SVG Export Plug-In . SVG Version: 6.00 Build 0)  -->
<svg version="1.1" id="_レイヤー_2" xmlns="http://www.w3.org/2000/svg" xmlns:xlink="http://www.w3.org/1999/xlink" x="0px"
	 y="0px" viewBox="0 0 411.4 411.4" style="enable-background:new 0 0 411.4 411.4;" xml:space="preserve">
<style type="text/css">
	.st0{fill:#B2D7F2;}
	.st1{fill:#FFFFFF;}
	.st2{clip-path:url(#SVGID_00000023991630844430970450000018164801885267223198_);}
	.st3{fill:#FCDFC2;}
	.st4{fill:#BFD4E1;}
	.st5{fill:#92B1BF;}
	.st6{fill:#2A313F;}
	.st7{fill:#1C5DAB;}
	.st8{fill:#202732;}
	.st9{fill:none;stroke:#3D1F1E;stroke-width:6;stroke-linecap:round;stroke-linejoin:round;}
	.st10{fill:none;stroke:#14171D;stroke-width:6;stroke-linecap:round;stroke-linejoin:round;}
	.st11{fill:none;stroke:#0E1D3D;stroke-width:6;stroke-linecap:round;stroke-linejoin:round;}
	.st12{fill:none;stroke:#374C6A;stroke-width:6;stroke-linecap:round;stroke-linejoin:round;}
	.st13{fill:#374C6A;}
	.st14{fill:#D3B79F;}
	.st15{fill:none;stroke:#4B1516;stroke-width:6;stroke-linecap:round;stroke-linejoin:round;}
</style>
<g id="_レイヤー_1-2">
	<g>
		<rect class="st0" width="411.4" height="411.4"/>
		<path class="st1" d="M205.7,9.7L205.7,9.7c108.2,0,196,87.8,196,196v0c0,108.2-87.8,196-196,196h0c-108.2,0-196-87.8-196-196v0
			C9.7,97.4,97.4,9.7,205.7,9.7z"/>
		<g>
			<defs>
				<rect id="SVGID_1_" width="411.4" height="411.4"/>
			</defs>
			<clipPath id="SVGID_00000181082140184765116750000012441169028810835093_">
				<use xlink:href="#SVGID_1_"  style="overflow:visible;"/>
			</clipPath>
			<g style="clip-path:url(#SVGID_00000181082140184765116750000012441169028810835093_);">
				<g>
					<path class="st3" d="M249.9,129.7l-92.1-3.2l-64.5,59.4c0,0-19,21.2-4.7,43.4s24.9,13.8,24.9,13.8s9.1,28.3,34.7,45.6
						s35.2,17.5,35.2,17.5l-4.9,53.1l52.6,40.6l-6.3-92.7c0,0,29.1-10.1,46.3-27.1s26.6-36.5,26.6-36.5s17-2.9,26.4-17.6
						c13.2-20.6-9.7-42.8-9.7-42.8l-28.9-44.5L249.9,129.7L249.9,129.7z"/>
					<path class="st4" d="M183.7,321.5c0,0-14.6-6.7-29.2-1.9s-18.4,15.5-18.4,15.5s-11.6-1.4-19.9,4.6
						c-15.3,10.9-15.3,30.1-15.3,30.1s-23.8,4.2-38.4,25.3s-17.3,83.8-17.3,83.8h320.9c0,0-1.6-62.5-19-86.1
						c-11.9-16.1-24.7-18.7-24.7-18.7s-6-19.7-20.1-28s-9.5-5.5-9.5-5.5s-16.2-16.7-30.4-18.3c-14.2-1.6-30.1-0.6-41,13.6
						c-10.9,14.2-19.7,40.6-19.7,40.6s-11-5.7-14.8-9.9c-0.7-0.8-9.2-5.7-9.2-5.7l6-26L183.7,321.5L183.7,321.5z"/>
					<path class="st5" d="M59.6,405.2c0,0-0.9,23.3,33.5,48.9c23,17.1,44.7,24.8,44.7,24.8H45.2l2.8-39.2l11.1-34.3"/>
					<path class="st6" d="M255.5,51.9c0,0-24.6-23.1-87.7-6.3c-54.8,14.6-81.8,60-84.8,86.3s6.1,59.2,6.1,59.2s2.3,6.1,10.5,4.1
						s19.4-16.8,19.4-16.8s8.4,1.8,16.6,0.3s14.6-5.7,14.6-5.7s12.1,4.7,22.1,3.3c11.1-1.6,19.6-8.8,19.6-8.8s12.8,3.1,22.6-0.3
						c19.2-6.7,27.2-22.4,27.2-22.4l6.9-12.2c0,0,16.6,7.4,24,15.8c7.4,8.4,19.4,27.3,21.9,37s5.4,19.4,5.4,19.4s8.4-9.4,10.2-13
						s3.1-5.9,3.1-5.9s6.1,3.6,8.2,6.4l2,2.8c0,0,4.8-9.9,6.1-15.3s8.8-56.3-9.2-81.6C288.5,53.2,255.5,51.9,255.5,51.9L255.5,51.9z
						"/>
					<ellipse class="st7" cx="155.9" cy="205.9" rx="15.3" ry="20"/>
					<ellipse class="st7" cx="253.9" cy="205.6" rx="15.3" ry="20"/>
					<g>
						<path class="st8" d="M326.6,110.7l4.5,20.6C330.3,124.1,328.9,117.1,326.6,110.7z"/>
						<path class="st8" d="M299.8,204.5c0,0,8.4-9.4,10.2-13c1.8-3.6,3.1-5.9,3.1-5.9s6.1,3.6,8.2,6.4l2,2.8c0,0,4.8-9.9,6.1-15.3
							c0.8-3.5,4.2-26,1.7-48.3l-4.5-20.6c-1.6-4.7-3.7-9-6.4-12.8c-0.1-0.2-0.2-0.3-0.4-0.5c-2.3,10.9-7.2,28.1-17.3,38.6
							c-10.5,10.9-21,14.8-26.7,16.2c7.2,9.4,16.4,24.6,18.6,32.9C297,194.8,299.8,204.5,299.8,204.5L299.8,204.5z"/>
					</g>
					<path class="st8" d="M85.1,125.4c0,0,6,20.2,18.9,32c9.1,8.2,17.5,11.1,17.5,11.1s-6.5,21.1-14.6,24.7s-14.8,2.3-16.3,0
						c-2.8-4.2-7-18.6-8-21.8c-3.8-11.4,2.4-46.5,2.4-46.5"/>
					<path class="st9" d="M192.1,265.3L192.1,265.3c8,2.9,16.7,2.9,24.7,0.1l0.2-0.1"/>
					<path class="st10" d="M248.3,129.1c0,0-3,14.3-12.9,27.5c-7.9,10.7-18.4,16.2-18.4,16.2"/>
					<path class="st10" d="M248.3,129.1c0,0,16.3,9.4,26.3,21.1c10.6,12.5,15.8,24,15.8,24"/>
					<path class="st10" d="M218,133.1c0,0-2.8,10.1-13,22.5c-7.7,9.3-17.6,14.6-17.6,14.6"/>
					<path class="st10" d="M284.2,48.7c-15-2.7-28.5,4.5-28.5,4.5s-6.3-10.6-15.9-17.4c-13.8-9.8-23.6-11-23.6-11"/>
					<path class="st10" d="M285.7,65.3c0,0,26.1,9,39.3,43.8c14.2,37.4,2.7,73.2,2.7,73.2"/>
					<path class="st10" d="M230,47c0,0-23.5-16.7-71.2-11.5"/>
					<path class="st10" d="M314.8,167.2c0,0,0,11.8-4.7,22c-3.1,6.9-8.8,13.4-8.8,13.4"/>
					<path class="st10" d="M171.4,46.3c0,0-41.5,5-69.2,42.1c-31.6,42.3-18.4,85.2-18.4,85.2"/>
					<path class="st10" d="M123.1,162.2c0,0,0,12.6-10.3,24c-5.7,6.3-12.6,9.2-12.6,9.2"/>
					<g>
						<g>
							<path class="st11" d="M256.1,185.9c-8.8-1.8-18.1,5.8-19.5,17.8c-1.3,10.6,4.3,19.9,13.1,22.2c8.8,2.3,17.1-2.6,20-13.3
								S267.8,188.3,256.1,185.9L256.1,185.9z"/>
							<path class="st1" d="M254.3,200.2c-2.5-0.5-5.2,1.8-5.5,5c-0.3,2.8,1.1,5.7,3.5,6.5s5-1.1,5.7-3.9S257.6,200.9,254.3,200.2z"
								/>
							<path class="st10" d="M229.2,160.2c0,0,5.5-4.8,21-6.8c14.8-1.8,24.1,0.8,24.1,0.8"/>
							<path class="st10" d="M289.8,203.3c0,0-11.7-19.6-34.4-20.3c-20.5-0.6-24.5,21.3-24.5,21.3"/>
						</g>
						<g>
							<path class="st11" d="M153.1,185.9c8.8-1.8,18.1,5.8,19.5,17.8c1.3,10.6-4.3,19.9-13.1,22.2c-8.8,2.3-17.1-2.6-20-13.3
								S141.4,188.3,153.1,185.9z"/>
							<path class="st1" d="M154.9,200.2c2.5-0.5,5.2,1.8,5.5,5c0.3,2.8-1.1,5.7-3.5,6.5c-2.4,0.8-5-1.1-5.7-3.9
								S151.6,200.9,154.9,200.2L154.9,200.2z"/>
							<path class="st10" d="M180,160.2c0,0-5.5-4.8-21-6.8c-14.8-1.8-24.1,0.8-24.1,0.8"/>
							<path class="st10" d="M178.2,204.3c0,0-4.1-21.9-24.5-21.3c-22.7,0.7-34.4,20.3-34.4,20.3"/>
						</g>
					</g>
					<path class="st10" d="M168.7,140.5c0,0-1.3,8.8-8.5,20.3c-5.5,8.7-13.3,14.1-13.3,14.1"/>
					<path class="st10" d="M100.2,370.5c-12,4.6-21,9.6-28.2,16.3c-23.6,22.2-24.2,91.7-24.2,91.7"/>
					<path class="st10" d="M309.2,369.3c12.2,4.7,25.1,10.7,32.4,17.6c23.6,22.2,24.2,91.7,24.2,91.7"/>
					<path class="st12" d="M120,92.3c0,0-9.6,4.7-15.4,19.2c-5.6,14.1,6.8,18.3,13.6,8.4c6.9-9.9,13.2-11.6,17.5-7.4
						c3.8,3.8,2.3,10,8,13.8c5.6,3.7,13.4-1.6,13.4-1.6"/>
					<circle class="st13" cx="166.7" cy="118.2" r="3.5"/>
					<path class="st10" d="M211.9,390.7c0,0,17.5,0.3,33.5-2c32.7-4.7,52.2-23.5,52.2-23.5"/>
					<path class="st10" d="M246.2,351.9c0,0,14.2-15.4,39.7-11.7C304.6,342.9,315,359,315,359"/>
					<g>
						<path class="st10" d="M170.6,318.7c-25.9-4.3-34,17.1-34,17.1s-22.6-3.2-31.4,17.5"/>
						<path class="st10" d="M197.4,391.1c0,0-17.7,1.4-33.5-2c-31.6-6.8-49.2-23.7-49.2-23.7"/>
					</g>
					<path class="st10" d="M158.9,390.8c0,0-1.9,13.1-2.3,26.1c-0.3,9.9,0,16.6,0,16.6"/>
					<path class="st10" d="M246.3,393.2c0,0-1.9,13.1-2.3,26.1c-0.3,9.9,0,16.6,0,16.6"/>
					<path class="st14" d="M183.3,304.3c0,0,11.3,2.4,20,2.5c8.8,0.1,20-1,20-1l3.7,24.6c0,0-11,10-16.4,20.7
						c-5.4,10.7-5.1,22.2-10.8,22.1c-11.9-0.2-33-28.9-33-28.9l14.8-6.6L183.3,304.3z"/>
					<g>
						<path class="st15" d="M225.7,321c-1.6-11.7-1.1-13.7-1.1-13.7s23-5.3,43.4-23.2c20.5-18,28.4-40.8,28.4-40.8
							s11.8,1.4,22.4-8.6c8.6-8.1,10.7-21,8.6-29.5c-1.2-5-3.1-8.8-4.9-11.6"/>
						<path class="st15" d="M181.2,344.2c2.2-12.3,3.3-38.1,3.3-38.1s-22.9-4.1-43.3-22c-20.5-18-28.4-40.8-28.4-40.8
							s-10.4,1.4-21-8.6c-8.6-8.1-10.7-21-8.6-29.5c3.6-14.3,10.7-18.8,10.7-18.8"/>
					</g>
					<path class="st10" d="M165.1,334.2c0,0-0.2,10.7,10.2,23.6c9.1,11.3,26.6,18.7,26.6,18.7s8.1-45.2,41.3-53.6
						c17-4.3,33.3,4.1,33.3,4.1"/>
				</g>
			</g>
		</g>
	</g>
</g>
</svg>
