<svg xmlns="http://www.w3.org/2000/svg" viewBox="0 0 952 88.72"><defs><style>.cls-1{fill:#717171;}</style></defs><g id="logo"><path class="cls-1" d="M67.87,6.75V19.09H27.55V40.46H63.46V52.8H27.55V74.61H69.41V86.94H14.67V6.75Z"/><path class="cls-1" d="M151.53,42.11a14.1,14.1,0,0,1,4.24,10.13v34.7H143.55V57a11.14,11.14,0,0,0-1.66-5.78,5.89,5.89,0,0,0-4.73-2.26,10.79,10.79,0,0,0-9.26,5.12,21.17,21.17,0,0,0-3.63,12V86.94H111.82V57a10.89,10.89,0,0,0-1.71-5.73,6.12,6.12,0,0,0-4.9-2.31,10,10,0,0,0-6.61,2.42,16.13,16.13,0,0,0-4.46,6.39A22,22,0,0,0,92.54,66V86.94H80.21V40.35H91.33l1,8.15a18.92,18.92,0,0,1,7.16-7.6,20.18,20.18,0,0,1,10.36-2.64,16.94,16.94,0,0,1,9.42,2.47,11.73,11.73,0,0,1,5,7.11,20.84,20.84,0,0,1,7.27-7.05,18.08,18.08,0,0,1,9.14-2.53Q147.52,38.26,151.53,42.11Z"/><path class="cls-1" d="M167.83,50.48a23.86,23.86,0,0,1,9.31-9,27.87,27.87,0,0,1,13.55-3.24,27.57,27.57,0,0,1,13.5,3.24,23,23,0,0,1,9.08,8.93,25.46,25.46,0,0,1,3.2,12.72,25.46,25.46,0,0,1-3.2,12.72,23.2,23.2,0,0,1-9.08,9,27.4,27.4,0,0,1-13.61,3.31,29.34,29.34,0,0,1-13.44-3,22.42,22.42,0,0,1-9.31-8.71,25.53,25.53,0,0,1-3.35-13.27A24.57,24.57,0,0,1,167.83,50.48Zm12.95,23.3A12.41,12.41,0,0,0,190.36,78a12.56,12.56,0,0,0,9.75-4.18,15.16,15.16,0,0,0,3.8-10.58,15.36,15.36,0,0,0-3.8-10.63,12.48,12.48,0,0,0-9.75-4.24,12.28,12.28,0,0,0-9.58,4.35,15.32,15.32,0,0,0-3.86,10.52A15.06,15.06,0,0,0,180.78,73.78Z"/><path class="cls-1" d="M241.91,19.86V40.35H254V50H241.91v36.9H229.58V50h-8.05V40.35h8.05V19.86Z"/><path class="cls-1" d="M263.39,19a7.35,7.35,0,0,1,5-1.92A7,7,0,0,1,273.14,19a6.08,6.08,0,0,1,2.15,4.68,5.91,5.91,0,0,1-2.15,4.63,7.1,7.1,0,0,1-4.79,1.87,7.45,7.45,0,0,1-5-1.87,5.84,5.84,0,0,1-2.2-4.63A6,6,0,0,1,263.39,19Zm10.69,21.32V86.94H261.74V40.35Z"/><path class="cls-1" d="M286.14,50.48a23.84,23.84,0,0,1,9.3-9A27.9,27.9,0,0,1,309,38.26a27.57,27.57,0,0,1,13.5,3.24,23,23,0,0,1,9.09,8.93,25.56,25.56,0,0,1,3.19,12.72,25.56,25.56,0,0,1-3.19,12.72,23.29,23.29,0,0,1-9.09,9,27.4,27.4,0,0,1-13.61,3.31,29.34,29.34,0,0,1-13.44-3,22.39,22.39,0,0,1-9.3-8.71,25.53,25.53,0,0,1-3.36-13.27A24.58,24.58,0,0,1,286.14,50.48Zm12.94,23.3A12.41,12.41,0,0,0,308.66,78a12.56,12.56,0,0,0,9.75-4.18,15.11,15.11,0,0,0,3.8-10.58,15.31,15.31,0,0,0-3.8-10.63,12.48,12.48,0,0,0-9.75-4.24,12.28,12.28,0,0,0-9.58,4.35,15.32,15.32,0,0,0-3.86,10.52A15.06,15.06,0,0,0,299.08,73.78Z"/><path class="cls-1" d="M384.61,42.28a13.28,13.28,0,0,1,4.47,10.08V86.94H376.74V56.76A9,9,0,0,0,374.59,51a7.81,7.81,0,0,0-5.78-2.2,11.33,11.33,0,0,0-9.42,4.9q-3.69,4.91-3.69,12.5V86.94H343.36V40.35h11.13l.88,8.26a18.18,18.18,0,0,1,7.32-7.55,22.29,22.29,0,0,1,11.07-2.69A15.6,15.6,0,0,1,384.61,42.28Z"/><path class="cls-1" d="M450.43,40.35V86.94H438.09V80.22a25.72,25.72,0,0,1-6.83,5.46,19.7,19.7,0,0,1-10,2.48,25.25,25.25,0,0,1-12-2.81A20.56,20.56,0,0,1,400.86,77a26.84,26.84,0,0,1-3.08-13.33A27.19,27.19,0,0,1,401,50.32a22.68,22.68,0,0,1,20.27-12.06q11.34,0,17,8.37l.88-6.28ZM433.19,75.43a13.74,13.74,0,0,0,4.9-7.32V58A12.92,12.92,0,0,0,433,51a15,15,0,0,0-8.76-2.64,13.42,13.42,0,0,0-9.91,4.13A14.34,14.34,0,0,0,410.22,63a15,15,0,0,0,7.27,13,13.7,13.7,0,0,0,7.16,2A13.85,13.85,0,0,0,433.19,75.43Z"/><path class="cls-1" d="M475.43,1V86.94H463.1V1Z"/><path class="cls-1" d="M555.81,4.15l34.82,83.54H520.88Z"/><path class="cls-1" d="M633.61,88.72c-22.64,0-41-18.73-41-41.82S611,5.19,633.61,5.19s40.9,18.61,40.9,41.71S656.13,88.72,633.61,88.72Z"/><path class="cls-1" d="M810.56,88.72c-22.63,0-41-18.73-41-41.82s18.39-41.71,41-41.71S851.47,23.8,851.47,46.9,833.08,88.72,810.56,88.72Z"/><path class="cls-1" d="M916.28,87.69h-59.4V5.88h30.33a22.81,22.81,0,1,1,0,45.61Z"/><path class="cls-1" d="M932.94,87.69H921.68V.85h11.26Z"/><path class="cls-1" d="M740.83,10.23a33.12,33.12,0,0,1-17.37-5.32h-.07c0,.22,0,32.19,0,32.4a19.19,19.19,0,0,1,16.09-7c13.08.79,4.67,31.05-3.82,31.05-6.89,0-9.19-12.57-9.19-12.57s-1.81,12.54-8.51,12.57c-10,0-8.53-30.1-8.53-30.1h-16.1a67.88,67.88,0,0,1-21.13,54.52H774a83.25,83.25,0,0,1-8.78-13.66c-13.74-26.82-9.29-54.29-6.29-66.94C758.93,5.18,749.91,10.39,740.83,10.23Z"/></g></svg>