<?xml version="1.0" encoding="UTF-8"?>
<svg id="logo" xmlns="http://www.w3.org/2000/svg" viewBox="0 0 439.76 88.72">
  <defs>
    <style>
      .cls-1 {
        fill: #fff;
      }
    </style>
  </defs>
  <path class="cls-1" d="m55.49,69.89v-24.8h-21.71v24.8h-11.5V14.33h11.5v21.18h21.71V14.33h11.53v55.56h-11.53Z"/>
  <path class="cls-1" d="m88.29,13.99v9.91h-10.89v-9.91h10.89Zm0,14.81v41.09h-10.89V28.81h10.89Z"/>
  <path class="cls-1" d="m127,30.69c3.22,2.06,5.06,5.6,5.54,10.63h-10.74c-.15-1.38-.54-2.47-1.17-3.28-1.18-1.46-3.19-2.19-6.03-2.19-2.34,0-4,.36-4.99,1.09-.99.73-1.49,1.58-1.49,2.56,0,1.23.53,2.12,1.58,2.68,1.05.58,4.79,1.57,11.19,2.98,4.27,1.01,7.48,2.53,9.61,4.56,2.11,2.06,3.17,4.64,3.17,7.73,0,4.07-1.51,7.39-4.54,9.97-3.03,2.58-7.71,3.86-14.04,3.86s-11.23-1.36-14.3-4.09c-3.08-2.73-4.62-6.2-4.62-10.42h10.89c.23,1.91.72,3.27,1.47,4.07,1.33,1.43,3.79,2.15,7.39,2.15,2.11,0,3.79-.31,5.03-.94,1.24-.63,1.87-1.57,1.87-2.83s-.5-2.12-1.51-2.75c-1.01-.63-4.74-1.71-11.2-3.24-4.65-1.16-7.93-2.6-9.84-4.33-1.91-1.71-2.87-4.17-2.87-7.39,0-3.79,1.49-7.05,4.47-9.78,2.98-2.73,7.17-4.09,12.57-4.09,5.13,0,9.31,1.02,12.55,3.05Z"/>
  <path class="cls-1" d="m160.43,62.24v8.03l-5.09.19c-5.08.18-8.54-.7-10.4-2.64-1.21-1.23-1.81-3.13-1.81-5.69v-25.29h-5.73v-7.65h5.73v-11.46h10.63v11.46h6.67v7.65h-6.67v21.71c0,1.68.21,2.73.64,3.15.43.42,1.73.62,3.92.62.33,0,.67,0,1.04-.02s.72-.03,1.08-.06Z"/>
  <path class="cls-1" d="m201.6,34.01c3.47,4.35,5.2,9.49,5.2,15.42s-1.73,11.19-5.2,15.47c-3.47,4.29-8.73,6.43-15.79,6.43s-12.33-2.14-15.79-6.43c-3.47-4.28-5.2-9.44-5.2-15.47s1.73-11.07,5.2-15.42c3.47-4.35,8.73-6.52,15.79-6.52s12.33,2.17,15.79,6.52Zm-15.83,2.56c-3.14,0-5.56,1.11-7.26,3.34s-2.54,5.4-2.54,9.52.85,7.3,2.54,9.54c1.7,2.24,4.12,3.35,7.26,3.35s5.55-1.12,7.24-3.35c1.68-2.24,2.53-5.42,2.53-9.54s-.84-7.29-2.53-9.52c-1.68-2.22-4.1-3.34-7.24-3.34Z"/>
  <path class="cls-1" d="m235.14,38.72c-4.32,0-7.22,1.41-8.71,4.22-.83,1.58-1.24,4.02-1.24,7.31v19.64h-10.82V28.81h10.25v7.16c1.66-2.74,3.1-4.61,4.33-5.62,2.01-1.68,4.62-2.53,7.84-2.53.2,0,.37,0,.51.02.14.01.45.03.92.06v11.01c-.68-.08-1.28-.13-1.81-.15-.53-.02-.96-.04-1.28-.04Z"/>
  <path class="cls-1" d="m279.7,57.83c-.28,2.44-1.54,4.91-3.81,7.43-3.52,4-8.44,5.99-14.78,5.99-5.23,0-9.84-1.68-13.83-5.05-4-3.37-5.99-8.85-5.99-16.44,0-7.11,1.8-12.56,5.41-16.36,3.61-3.79,8.29-5.69,14.04-5.69,3.42,0,6.5.64,9.24,1.92,2.74,1.28,5,3.3,6.79,6.07,1.61,2.44,2.65,5.26,3.13,8.48.28,1.88.39,4.6.34,8.14h-28.12c.15,4.12,1.44,7.01,3.88,8.67,1.48,1.03,3.27,1.55,5.35,1.55,2.21,0,4.01-.63,5.39-1.88.75-.68,1.42-1.62,2-2.83h10.97Zm-10.63-12.59c-.18-2.84-1.04-4.99-2.58-6.46-1.55-1.47-3.46-2.21-5.75-2.21-2.49,0-4.42.78-5.79,2.34-1.37,1.56-2.23,3.67-2.58,6.33h16.7Z"/>
  <path class="cls-1" d="m324.86,14.41v55.49h-10.44v-5.69c-1.53,2.44-3.28,4.21-5.24,5.31-1.96,1.11-4.4,1.66-7.31,1.66-4.8,0-8.84-1.94-12.12-5.82-3.28-3.88-4.92-8.86-4.92-14.95,0-7.01,1.61-12.53,4.84-16.55,3.23-4.02,7.54-6.03,12.95-6.03,2.49,0,4.7.55,6.63,1.64,1.93,1.09,3.51,2.61,4.71,4.54V14.41h10.89Zm-28.95,35.21c0,3.79.75,6.82,2.26,9.08,1.48,2.29,3.74,3.43,6.79,3.43s5.35-1.13,6.94-3.39c1.58-2.26,2.37-5.19,2.37-8.78,0-5.03-1.27-8.62-3.81-10.78-1.56-1.31-3.37-1.96-5.43-1.96-3.14,0-5.45,1.19-6.92,3.56-1.47,2.37-2.21,5.32-2.21,8.84Z"/>
  <path class="cls-1" d="m346.23,77.09c1.16.98,3.1,1.47,5.84,1.47,3.87,0,6.46-1.29,7.76-3.88.85-1.66,1.28-4.45,1.28-8.37v-2.64c-1.03,1.76-2.14,3.08-3.32,3.96-2.14,1.63-4.91,2.45-8.33,2.45-5.28,0-9.49-1.85-12.65-5.56-3.15-3.71-4.73-8.73-4.73-15.06s1.52-11.24,4.56-15.4c3.04-4.16,7.35-6.24,12.93-6.24,2.06,0,3.86.31,5.39.94,2.61,1.08,4.72,3.07,6.33,5.96v-5.92h10.44v38.98c0,5.3-.89,9.3-2.68,11.99-3.07,4.62-8.95,6.94-17.64,6.94-5.25,0-9.54-1.03-12.85-3.09-3.32-2.06-5.15-5.14-5.5-9.23h11.69c.3,1.26.79,2.16,1.47,2.71Zm-1.81-21.22c1.46,3.47,4.07,5.2,7.84,5.2,2.51,0,4.64-.95,6.37-2.85,1.73-1.9,2.6-4.92,2.6-9.07,0-3.89-.82-6.86-2.47-8.9-1.65-2.04-3.85-3.05-6.62-3.05-3.77,0-6.37,1.77-7.8,5.31-.75,1.88-1.13,4.21-1.13,6.97,0,2.39.4,4.51,1.21,6.37Z"/>
  <path class="cls-1" d="m416.94,57.83c-.28,2.44-1.54,4.91-3.81,7.43-3.52,4-8.44,5.99-14.78,5.99-5.23,0-9.84-1.68-13.83-5.05-4-3.37-5.99-8.85-5.99-16.44,0-7.11,1.8-12.56,5.41-16.36,3.61-3.79,8.29-5.69,14.04-5.69,3.42,0,6.5.64,9.24,1.92,2.74,1.28,5,3.3,6.79,6.07,1.61,2.44,2.65,5.26,3.13,8.48.28,1.88.39,4.6.34,8.14h-28.12c.15,4.12,1.44,7.01,3.88,8.67,1.48,1.03,3.27,1.55,5.35,1.55,2.21,0,4.01-.63,5.39-1.88.75-.68,1.42-1.62,2-2.83h10.97Zm-10.63-12.59c-.18-2.84-1.04-4.99-2.58-6.46-1.55-1.47-3.46-2.21-5.75-2.21-2.49,0-4.42.78-5.79,2.34-1.37,1.56-2.23,3.67-2.58,6.33h16.7Z"/>
</svg>