<?xml version="1.0" encoding="UTF-8"?>
<svg id="border" xmlns="http://www.w3.org/2000/svg" viewBox="0 0 842 595">
  <defs>
    <style>
      .cls-1 {
        stroke-width: .28px;
      }

      .cls-1, .cls-2, .cls-3, .cls-4 {
        stroke-linecap: round;
      }

      .cls-1, .cls-2, .cls-3, .cls-4, .cls-5 {
        fill: none;
        stroke: #3f3f3f;
        stroke-miterlimit: 10;
      }

      .cls-2 {
        stroke-width: .25px;
      }

      .cls-3, .cls-5 {
        stroke-width: .25px;
      }

      .cls-4 {
        stroke-width: .23px;
      }
    </style>
  </defs>
  <polyline class="cls-3" points="438.98 124.62 440.19 132.65 428.22 133.71 427.39 125.61"/>
  <polyline class="cls-3" points="423.01 145.06 441.46 142.65 442.41 148.43"/>
  <polyline class="cls-3" points="513.54 169.84 539.6 151.35 543.56 156.94"/>
  <line class="cls-3" x1="482.42" y1="192.05" x2="512.08" y2="171"/>
  <line class="cls-3" x1="449.37" y1="215.5" x2="481.51" y2="192.69"/>
  <line class="cls-3" x1="416.09" y1="239.02" x2="446.63" y2="217.44"/>
  <line class="cls-3" x1="413.88" y1="240.42" x2="385.44" y2="260.36"/>
  <polyline class="cls-5" points="334.75 294.1 323.96 301.16 313.45 307.89"/>
  <line class="cls-1" x1="310.79" y1="307.87" x2="279.2" y2="312.61"/>
  <line class="cls-3" x1="318.09" y1="325.13" x2="282.86" y2="331.86"/>
  <line class="cls-5" x1="291.78" y1="330.15" x2="290.67" y2="363.47"/>
  <line class="cls-3" x1="290.52" y1="375.45" x2="322.78" y2="368.72"/>
  <line class="cls-3" x1="322.19" y1="326.76" x2="337.34" y2="317.66"/>
  <line class="cls-3" x1="350.93" y1="310.55" x2="339.62" y2="316.31"/>
  <polyline class="cls-4" points="367.3 309.11 362.59 302.77 358.13 303.18 352.29 307.33 348.72 302.33"/>
  <polyline class="cls-4" points="346.39 302.73 350.44 308.64 350.93 310.55 355.81 317.34"/>
  <polyline class="cls-3" points="365.08 325.12 394.56 304.03 424.38 282.88 419.53 276"/>
  <line class="cls-3" x1="329.61" y1="322.32" x2="341.19" y2="344.33"/>
  <polyline class="cls-3" points="322.78 368.72 324.27 377.28 312.96 379.37 311.89 370.97"/>
  <polyline class="cls-3" points="290.82 354.51 318.24 349.44 320.37 356.83"/>
  <line class="cls-3" x1="323.06" y1="370.08" x2="353.63" y2="351.96"/>
  <line class="cls-3" x1="358.11" y1="336.09" x2="345.52" y2="313.31"/>
  <line class="cls-3" x1="444.97" y1="296.69" x2="457.09" y2="313.79"/>
  <line class="cls-3" x1="445.35" y1="267.48" x2="472.24" y2="304.14"/>
  <line class="cls-3" x1="440.61" y1="270.85" x2="468.06" y2="250.18"/>
  <line class="cls-3" x1="483.93" y1="238.85" x2="470.81" y2="248.16"/>
  <line class="cls-3" x1="483.93" y1="238.85" x2="501.39" y2="226.54"/>
  <line class="cls-3" x1="501.2" y1="226.61" x2="545.25" y2="194.93"/>
  <line class="cls-3" x1="552" y1="190.14" x2="558.12" y2="185.79"/>
  <polyline class="cls-3" points="542.95 186.17 546.06 190.55 543.46 192.4 546.4 196.55 553.05 191.83 550.19 187.79 547.68 189.56 544.45 185.02"/>
  <line class="cls-2" x1="473.69" y1="336.83" x2="458.38" y2="315.26"/>
  <line class="cls-2" x1="479.22" y1="343.71" x2="486.92" y2="357.4"/>
  <polyline class="cls-2" points="474.35 306.88 487.84 325.9 500.86 348.38 495.72 351.48"/>
  <path class="cls-2" d="m478.66,312.96s13.55-10.02,17.3-14.17c2.76-3.05,9.11-13.71,9.11-13.71"/>
  <polyline class="cls-2" points="447.31 339.41 468.15 338.83 468.33 344.46"/>
  <path class="cls-2" d="m447.26,339.34s-12.84-.48-15.59-.34c-1.07.05-4.28-3.01-6.64-3.79-2.17-.71-4.87-.64-4.87-.64"/>
  <path class="cls-3" d="m354.93,349.29s7.65-5.28,8.77-5.36,4.17-.56,5.36-1.4,1.68-2.89,2.26-3.24,2.09-1.45,2.09-1.45"/>
</svg>