<?xml version="1.0" encoding="UTF-8"?>
<svg id="moat" xmlns="http://www.w3.org/2000/svg" viewBox="0 0 842 595">
  <defs>
    <style>
      .cls-1 {
        fill: #91c6e8;
      }
    </style>
  </defs>
  <path class="cls-1" d="m588.51,194.14l-22.45-5.76-5.36-2.66s-3.45,1.89-4.7,3.58-.49,3.13-1.45,4.65c-.96,1.52-3.16,2.86-4.84,3.73-1.55.8-3.74,1.62-6.53,1.92-2.79.3-7.14,5.66-7.14,5.66,0,0-4.97,6.84-6.3,7.66-1.33.83-1.85,9.95-1.96,10.63s.69,8.63-.72,13.23c-1.41,4.6-4.14,7.5-4.46,9.4s-1.86,5.89-2.15,6.33c-.29.44-.26,5.66-.48,6.53-.22.87-.8,3.86-1.19,5.2-.81,2.74-1.94,8.57-3.39,11.03-1.56,2.65-9.49,7.78-9.49,7.78l2.82,3.98,20.74,11.9s.54-.66.66-1.34.23-6.17,1.64-7.05,5.48-4.17,5.48-4.17c0,0,2.76-3.32,2.81-4.43.05-1.11,1.84-2.31,3.01-3.37,1.16-1.07,5.74-5.14,5.74-5.14,0,0,8.29-8.63,11-8.86.96-.08,4.81-2.8,6.97-3.03s4.39.79,7.03.45,2.29-11.64,3.55-14.83c1.48-3.77,5.93-6.29,8.94-6.34,2.77-.05,3.46,1.1,4.21,1.65.75.55,4.46,7.98,9.46,6.57,4.46-1.27,5.3-8.08,5.3-8.08l.71-5.3s-1.56-6.25-.41-8.02,7.06-3.59,8.66-4.37,5.98.21,5.98.21l-10.24-19.32-21.45-10.01Z"/>
  <path class="cls-1" d="m531.15,381.98l-22.14.35s-6.83,2.71-7.99,4.39c-1.16,1.68-3.25,9.17-3.78,10.36s-3.62,8.62-3.79,10.21c-.17,1.58-2.85,5.78-3.39,7.84-.49,1.88-.19,5.47-1.04,7.72-.84,2.25-4.34,6.14-5.62,12.2-1.28,6.06,1.18,11.31,1.64,14.03.46,2.73,3.54-1.67,4.12-2.76,1.04-1.96,2.5-6.21,3.71-8.07s4.33-4.88,5.78-6.5c1.56-1.74,4.24-5.59,5.91-7.23,1.93-1.9,6.75-4.6,8.6-6.58,1.29-1.38,2.02-6.4,3.9-6.45s2.45,4.86,3.62,6.23,5.12,4.22,6.5,3.07c1.07-.9.43-5.17.23-6.88-.31-2.7-1.01-8.11-.97-10.83.05-2.88,1-8.77,1.3-11.47.3-2.7,3.41-9.62,3.41-9.62Z"/>
  <path class="cls-1" d="m512.91,381.33s.48-2.91-1.53-5.32c-2-2.41-.58-4.66-.45-7.2s-2.88-8.67-2.88-8.67c0,0-.79,5.6-1.06,8.59s-.27,3.77.17,5.31c.45,1.55,1.63,7.32,1.63,7.32l4.11-.03Z"/>
  <polygon class="cls-1" points="265.8 401.56 265.62 404.12 271.89 404.31 270.95 417.22 275.31 417.32 275.42 410.35 275.45 402.23 265.8 401.56"/>
  <polygon class="cls-1" points="287.89 399.17 286.92 407.16 280.36 407.95 280.1 414 285.42 414.21 285.47 410.76 291.57 410.9 291.5 398.93 287.89 399.17"/>
  <path class="cls-1" d="m266.53,309.04c-.95-.82-6.99-3.2-6.99-3.2l-22.7-3.29-8.48-2.09s-4.32,5.45-5.54,7.53-2.49,2.25-4.19,3.45-2.95,3.04-3.68,4.29c-.73,1.24-5.21,5.37-6.09,6.96-.88,1.59-2.44,6.01-2.94,7.21-.49,1.2-4.28,4.37-5.57,7.09-1.29,2.73-.06,7.66-.51,9.31-.44,1.64-5.3,6.9-4.73,9.41.57,2.5-.85,4.47-.9,5.72s.87,4.46.98,6.32c.11,1.86.25,3.57-.02,4.13s.36,2.77.85,4.6c.49,1.83.13,2.45-.95,4.91-1.08,2.46-.31,5.05-.31,5.05,0,0,2.45,3.83,3.09,5.67.64,1.85,2,4.14,2.86,8.01.86,3.86-.16,6.4-.35,8.59-.19,2.19.27,2.47.3,4.02.03,1.55-.57,7.9-.56,8.86s.99,3.29,1.32,4.32c.33,1.03,1.25,6.31,1.43,7.88.17,1.57,1.96,9.01,2.34,10.67.38,1.66,2.21,7.73,2.6,9.13.39,1.4.85,7.02.85,7.02l1.67,2.35.23-4.52-1.87-9.45s-3.97-16.76-4.68-19.64c-.71-2.89.91-9.56.63-10.33s7.74-9.2,9.22-11.83,4.96-6.93,6.15-7.9c1.19-.97,6-6.1,6.91-7.84.91-1.74,5.24-5.16,8.32-6.87,3.08-1.7,6.76-4.91,8.35-6.64,1.59-1.73,3.04-5.87,3.4-6.49s1.82-3.43,2.62-4.33c.67-.75,1.94-3.31,2.49-4.43.55-1.12,1.73-2.68,3.22-4.16s3.16-4.24,3.16-4.24c0,0,3.1-3.63,4.06-4.92,1.39-1.87,1.62-5.02,3.55-8.35,1.93-3.33,4.2-7.92,4.2-7.92l2.82-8.74s-.58-8.56-1.07-9.96-4.6-4.52-5.55-5.34Z"/>
  <g>
    <path class="cls-1" d="m226.28,283.18l.06-.39s-.08.27-.06.39Z"/>
    <path class="cls-1" d="m308.75,190.48l-9.54-4.43s-2.9,5.02-3.65,5.55-3.56,2.77-8.3,4.21c-2.7.82-10.04,2.08-13.04,3.26-2.45.96-9.05,1.62-11.84,3.6s-6.23,13.82-7.53,14.86-9.54,12-10.49,16.88c-.79,4.03,1.78,12.67.15,16.44s-7.82,7.23-9.91,13.75c-1.7,5.3-3.8,7.49-4.83,11.11-.95,3.32-.95,7.41-.6,9.3.99,5.29,7.02,16.76,7.02,16.76l26.01,6.26s6.8-5.78,8.73-6.19c1.93-.41,6.47-7.69,7.27-8.26s1.69-4.27,3.22-4.74,6.73-3.97,8.63-6c1.69-1.81-.01-4.95-.22-5.48-.44-1.13,2.36-5.21,2.36-5.63,0-.42.16-6.95,4.67-10.15,4.51-3.2,7.31-3.89,13.22-4.7,2.51-.34,6.37-1.58,7.74-1.77s4.73-3.9,5.27-4.58c.54-.68,5.1-9.28,6.3-10.23,3.08-2.42,8.42-5.15,10.5-5.87,2.22-.76,5.53-2.22,8-5,2.46-2.78,3.53-4.51,3.53-4.51,0,0-3.2-7.89-5.07-9.97-7.49-8.34-37.59-24.46-37.59-24.46Z"/>
  </g>
  <polygon class="cls-1" points="400.56 178.92 401.8 183.91 417.27 178.45 417.41 179.06 422.93 176.94 421.82 172.01 400.56 178.92"/>
  <polygon class="cls-1" points="462.8 152.26 465.38 161.28 451.17 165.57 450.54 163.41 423.86 171.1 425.37 175.96 471.32 161.84 468 150.95 462.8 152.26"/>
  <path class="cls-1" d="m475.7,105.13c-4.05-2.97-13.46-9.43-16.35-11.67-2.9-2.23-12.06-7.76-12.06-7.76l-1.58,3.84s8.38,5.53,11.3,7.17c3.66,2.06,10.46,7.04,13.97,9.34,3.32,2.18,8.33,5.06,10.92,11.54,2.6,6.48,4.18,15.39,3.59,16.69-.6,1.3-2.34,2-3.96,3.55-1.62,1.55-7.45,4.06-9.42,4.9-1.97.84-11.32,3.94-11.32,3.94l.64,3.89s2.66-.81,4.64-1.22c1.98-.41,4.33-1.23,8.35-3.05s8.06-3.96,10.1-5.49c2.04-1.52,3.37-3.84,3.94-5.51.57-1.67.8-7.17.29-9.49-.84-3.85-5.31-12.72-6.25-14.46s-4.95-4.85-6.81-6.21Z"/>
  <polygon class="cls-1" points="410.61 109.31 410.85 113.2 413.58 113.08 414.97 139.47 401.48 141.71 402.04 145.32 419.4 142.23 417.04 108.79 410.61 109.31"/>
  <path class="cls-1" d="m444.83,88.9s-12.72-1.81-14.58-1.81-8.94.66-8.94.66l-5.76.79-3.04.4,1.43,18.56-3.3.22-.96-20.6s-5.98-.44-7.38-.22-5.15.98-5.15.98l-8.81,3.18-1.27-1.91-15.42,9.88-1.43,11.01-1.09,3.01-1.63,2.28-.08,5.58s2.45,5.9,3.65,8.36c.34.7.3,4.69.39,4.88.38.87,5.05,11.29,5.05,11.29l22.91-3.38.72,3.84-21.5,3.85s-6.07,1.28-6.31,1.04-1.83-2.17-2.62-3.29-2.39-4.9-2.56-6.58-2.93-8.7-3.31-9.73-1.16-23.79-.7-25.01,6.66-10.86,8.16-12.26,6.07-3.8,7.85-4.93,14.16-6.53,14.16-6.53c0,0,6.83.56,8.09.58s9.64,1.91,10.72,2.15,4.99-1.86,4.99-1.86l5.28-.7,7.04-.2,6.37.52s4.26.36,6.3.88,3.93,1.3,3.93,1.3l-1.19,3.8Z"/>
  <path class="cls-1" d="m494.1,147.1s-1.28.63-1.61.38-1.18-.92-1.35-1.4-.33-1.2.03-1.5.62-.4.89-.35.69.35.72.57.1.81.25.98.8.35.96.68.1.65.1.65Z"/>
  <path class="cls-1" d="m351.93,375.99l-10.13,10.89-20.94,13.6-20.09,9.04-17.41,7.08-7.22.95-8.03-.22-9.29,2.23-4.18,1.25c.36-.56.71-1.35,1.04-1.73,1.7-2.01,6.8-4.65,7.75-7.11.76-1.97-.84-6.28-1.14-8.37-.13-.86-.26-2.69.08-3.49.55-1.31,3.14-2.93,3.99-4.07s2.21-5.45,2.21-5.45c0,0,1.52-34.55,2.88-45.98.25-2.07,1.44-8.22,1.44-8.22,0,0,.33-2.04.83-2.43,1.29-1,6.52-.47,6.52-.47l-.04-1s-5.68-.73-7.08.37c-.48.38-.95,2.29-1.1,2.88-.57,2.27-1.32,6.45-1.56,8.62-1.26,11.41-2.92,44.68-3.25,45.79-.33,1.11-.81,3.27-1.34,4.25-.89,1.61-3.73,4.49-4.43,5.87s.15,4.45.15,4.45c0,0,.77,4.72.2,6.3-.83,2.28-6.45,7.25-6.45,7.25l-4.22,5.55-8.08,7.65-7.33,11.36-2.39,9.31.85,5.93,2.44,15.78.88-.62-2-13.81-.09-6.05,1.51-9.7s5.97-10.35,7.04-11.72,6.61-5.89,7.82-7.23c.66-.73,1.4-1.68,2.14-2.75l1.39-.47s8.55-1.81,9.92-2.24c1.37-.43,4.33-.49,6.49-.28,2.16.21,9.32.16,12-.48,2.69-.65,34.55-15.34,36.49-16.24s20.63-12.6,21.98-13.73,19.28-21.9,19.28-21.9l-.31-1.41-9.21,10.82Z"/>
</svg>