<?xml version="1.0" encoding="UTF-8"?>
<svg xmlns="http://www.w3.org/2000/svg" viewBox="0 0 1491.25 1781.29">
  <defs>
    <style>
      .cls-1 {
        stroke-width: 3px;
      }

      .cls-1, .cls-2 {
        fill: none;
        stroke: #ff3c00;
        stroke-miterlimit: 10;
      }

      .cls-3 {
        letter-spacing: -.01em;
      }

      .cls-4 {
        font-size: 11.75px;
      }

      .cls-4, .cls-5, .cls-6, .cls-7, .cls-8, .cls-9, .cls-10, .cls-11, .cls-12, .cls-13, .cls-14, .cls-15, .cls-16, .cls-17, .cls-18, .cls-19, .cls-20, .cls-21, .cls-22, .cls-23, .cls-24 {
        font-family: KozGoPr6N-Regular-83pv-RKSJ-H, 'Kozuka Gothic Pr6N';
      }

      .cls-5 {
        font-size: 9.51px;
      }

      .cls-5, .cls-7, .cls-10, .cls-14, .cls-16, .cls-17, .cls-19, .cls-21, .cls-22, .cls-23 {
        glyph-orientation-vertical: 0deg;
        text-orientation: upright;
        writing-mode: tb;
      }

      .cls-25 {
        letter-spacing: -.02em;
      }

      .cls-6 {
        font-size: 11.92px;
      }

      .cls-7 {
        letter-spacing: 0em;
      }

      .cls-7, .cls-8, .cls-11, .cls-12, .cls-15, .cls-16, .cls-19, .cls-22, .cls-24 {
        fill: #fff;
      }

      .cls-7, .cls-16 {
        font-size: 3.75px;
      }

      .cls-8 {
        font-size: 2.31px;
      }

      .cls-9 {
        font-size: 7.33px;
      }

      .cls-10 {
        font-size: 11.29px;
      }

      .cls-26 {
        letter-spacing: -.48em;
      }

      .cls-11 {
        font-size: 3.73px;
      }

      .cls-12 {
        font-size: 16.23px;
      }

      .cls-13 {
        font-size: 8.38px;
      }

      .cls-2 {
        stroke-width: 2px;
      }

      .cls-14 {
        font-size: 13.45px;
      }

      .cls-15 {
        font-size: 3.62px;
      }

      .cls-17 {
        font-size: 6.08px;
      }

      .cls-18 {
        font-size: 33.09px;
      }

      .cls-19 {
        font-size: 3.15px;
      }

      .cls-20 {
        font-size: 5.72px;
      }

      .cls-21 {
        font-size: 9.24px;
      }

      .cls-22 {
        font-size: 6.98px;
      }

      .cls-27 {
        letter-spacing: 0em;
      }

      .cls-28 {
        letter-spacing: 0em;
      }

      .cls-23 {
        font-size: 13.46px;
      }

      .cls-29 {
        fill: #7a98f9;
      }

      .cls-29, .cls-30, .cls-31, .cls-32, .cls-33, .cls-34 {
        stroke-width: 0px;
      }

      .cls-30 {
        fill: #0800a5;
      }

      .cls-31 {
        fill: #ff8500;
      }

      .cls-32 {
        fill: #fffbe9;
      }

      .cls-33 {
        fill: #ff3c00;
      }

      .cls-34 {
        fill: #00bdff;
      }

      .cls-24 {
        font-size: 5.94px;
      }
    </style>
  </defs>
  <g id="_レイヤー_1" data-name="レイヤー 1">
    <rect class="cls-32" y="1.09" width="1499.65" height="1780.19"/>
  </g>
  <g id="street">
    <g id="avenue">
      <rect class="cls-33" x="386.8" y="224.58" width="462.39" height="2.94"/>
      <rect class="cls-33" x="253.35" y="297.71" width="585.08" height="3.92"/>
      <rect class="cls-33" x="249.59" y="340.43" width="137.21" height="3.92"/>
      <rect class="cls-33" x="560.86" y="340.43" width="280.15" height="3.92"/>
      <rect class="cls-33" x="156.13" y="382.79" width="232.75" height="3.92"/>
      <rect class="cls-33" x="560.86" y="382.79" width="293.53" height="3.92"/>
      <rect class="cls-33" x="294.29" y="423.19" width="92.51" height="3.92"/>
      <rect class="cls-33" x="559.4" y="423.19" width="287.33" height="3.92"/>
      <rect class="cls-33" x="294.29" y="460.42" width="92.51" height="3.92"/>
      <rect class="cls-33" x="559.4" y="460.42" width="283.41" height="3.92"/>
      <rect class="cls-33" x="271.48" y="501.42" width="535.76" height="6.85"/>
      <rect class="cls-33" x="792.3" y="501.42" width="234.73" height="6.85"/>
      <rect class="cls-33" x="197.02" y="584.57" width="607.29" height="3.92"/>
      <rect class="cls-33" x="346.58" y="662.08" width="573.99" height="3.92"/>
      <rect class="cls-33" x="378.28" y="739.35" width="432.96" height="3.92"/>
      <rect class="cls-33" x="471.2" y="815.16" width="311.6" height="3.92"/>
      <rect class="cls-33" x="257.91" y="892.84" width="576.25" height="3.92"/>
      <rect class="cls-33" x="326.67" y="970.08" width="475.89" height="3.92"/>
      <rect class="cls-33" x="327.35" y="1047.8" width="515.27" height="3.92"/>
      <rect class="cls-33" x="5.98" y="1138.58" width="836.64" height="3.92" transform="translate(-5.52 2.07) rotate(-.28)"/>
      <rect class="cls-33" x="888.45" y="298.2" width="117.17" height="2.94"/>
      <rect class="cls-33" x="888.45" y="340.92" width="117.17" height="2.94"/>
      <rect class="cls-33" x="888.45" y="383.28" width="117.17" height="2.94"/>
      <rect class="cls-33" x="888.31" y="423.19" width="117.31" height="3.92"/>
      <rect class="cls-33" x="886.99" y="460.91" width="117.17" height="2.94"/>
      <rect class="cls-33" x="424.3" y="1433.52" width="269.65" height="2.94"/>
      <rect class="cls-33" x="424.3" y="1476.89" width="47.76" height="2.94"/>
      <rect class="cls-33" x="428.04" y="1519" width="44.01" height="2.94"/>
      <rect class="cls-33" x="431.78" y="1557.35" width="40.27" height="2.94"/>
    </g>
    <g id="st">
      <rect class="cls-33" x="385.35" y="207.37" width="2.91" height="297.47"/>
      <rect class="cls-33" x="302.66" y="299.67" width="2.91" height="205.18"/>
      <rect class="cls-33" x="154.68" y="328.94" width="2.91" height="116.62"/>
      <rect class="cls-33" x="470.98" y="213.73" width="2.91" height="85.94"/>
      <rect class="cls-33" x="557.94" y="213.73" width="2.91" height="836.03"/>
      <rect class="cls-33" x="639.96" y="213.73" width="2.91" height="836.03"/>
      <rect class="cls-33" x="718.99" y="225.97" width="2.91" height="823.79"/>
      <rect class="cls-33" x="840.38" y="983.41" width="1.57" height="442.71"/>
      <rect class="cls-33" x="804.32" y="226.47" width="2.91" height="565.62"/>
      <polygon class="cls-33" points="473.53 1560.28 471.32 1560.28 471.32 1063.5 468.89 1063.5 468.89 504.84 475.98 504.84 475.98 1063.5 473.55 1063.5 473.53 1560.28"/>
      <rect class="cls-33" x="514.01" y="506.25" width="2.91" height="543.51"/>
      <rect class="cls-33" x="886.99" y="285.93" width="2.91" height="248.92"/>
      <rect class="cls-33" x="918.41" y="284.16" width="2.91" height="140.99"/>
      <rect class="cls-33" x="945.57" y="280.03" width="2.91" height="245.87"/>
      <rect class="cls-33" x="1004.16" y="280.03" width="2.91" height="228.24"/>
      <rect class="cls-33" x="1025.57" y="449.35" width="2.91" height="115.67"/>
      <rect class="cls-33" x="677.54" y="504.84" width="2.91" height="466.24"/>
      <rect class="cls-33" x="427.52" y="819.12" width="2.91" height="230.64"/>
      <rect class="cls-33" x="385.25" y="840.18" width="2.91" height="209.58"/>
      <path class="cls-1" d="m260.77,896.8s-49.41-4.17-80.45,12.79c-31.03,16.96-61.69,42.2-80.76,57.65-19.07,15.45-93.85,64.06-93.85,64.06"/>
      <polyline class="cls-1" points="472.06 1560.28 356.67 1673.54 240.16 1786.79"/>
      <path class="cls-2" d="m841.16,1426.01l-8.25,82.94s-8.04,35.05,4.12,44.79c12.16,9.74,64.61,37.55,76.75,38.95,12.15,1.39,42.79,8.9,65.97,24.48,23.19,15.58,50.51,30.6,68.18,49.52,17.67,18.92,72.32,74,88.06,82.34,15.73,8.35,75.63,32.27,75.63,32.27"/>
      <path class="cls-1" d="m1027.03,534.85s23.53-2.33,32.44,9.86c8.91,12.19,29.41,30.6,41.89,95.72,12.48,65.12,30.3,89.88,53.48,108.49s66.4,32.37,96.26,56.7c29.86,24.33,59.27,59.81,114.08,79.12,54.81,19.31,112.3,13.47,112.3,13.47"/>
    </g>
  </g>
  <g id="river">
    <path class="cls-30" d="m711.73-.66s18.41,38.81,38.09,55.45c19.68,16.63,54.5,51.04,66.45,68.39,12.69,18.43,26.19,29.17,38.11,66.14,11.92,36.96,21.75,60.51,21.75,60.51,0,0,21.79-42.74,24.64-61.03s14.97-70.45,25.3-86.05,46.09-70.12,52.51-73.82L1017.93-.66h20.25s-93.71,85.02-106,124.76c-12.29,39.74-15,72.85-20.5,84.87-5.5,12.02-31.4,61.84-32.07,77.43s2.12,64.82,0,83.94-1.17,103.64,0,118.33c1.17,14.69,3.31,115.99-3.77,135.39s-28.77,84.53-35.46,109.26c-6.68,24.73-33.36,87.57-20.94,144.86,12.42,57.3,7.83,120.43,10.58,133.22s22.03,22.03,4.14,59.92c-17.89,37.89-47.24,140.47-60.99,159.87-13.76,19.41-34.85,48.05-37.6,99.81s2.75,163.57-49.52,204.23c-52.27,40.66-214.58,121.98-227.42,150.63s-34.34,97.96-34.34,97.96h-46.36s55.02-73.01,20.17-135.85c-34.85-62.84-174.23-269.84-174.23-269.84,0,0-27.51-32.34-26.59-71.16s.92-115.52-10.09-147.86c-11-32.34-56.85-78.55-65.11-84.1-8.25-5.54-116.38-140.58-116.38-140.58v-35.68s99.88,134.06,123.72,151c23.84,16.94,92.62,36.35,96.29,119.52,3.67,83.17,2.75,159.87,29.34,195.91,26.59,36.04,121.04,174.66,131.13,188.52,10.09,13.86,51.35,81.32,51.35,81.32,0,0,93.53-25.88,116.46-35.12,22.93-9.24,115.54-71.16,131.13-103.5,15.59-32.34,35.62-143.24,33.86-154.33s.07-67.46,16.58-87.79c16.51-20.33,50.44-119.21,58.69-136.77s32.02-52.89,25.18-82.82c-6.84-29.93-7.76-103.86-7.76-112.17s-22.01-43.43-17.42-71.16c4.59-27.72,14.67-102.58,31.18-137.69,16.51-35.12,25.88-70.53,29.55-84.7s6.52-79.37,3.77-93.67c-2.75-14.3,1.17-111.49,1.96-130.36.79-18.87,1.96-105.91,0-115.99s-2.37-52.21-19.71-87.72c-17.34-35.51-74.26-115.97-81.6-120.59s-66.94-62.7-66.94-69.31,0-12.01,0-12.01h19.26Z"/>
  </g>
  <g id="overlay">
    <rect class="cls-34" x="388.26" y="301.28" width="169.68" height="200.14"/>
    <rect class="cls-34" x="111.24" y="386.71" width="43.43" height="64.13"/>
    <rect class="cls-34" x="143.41" y="269.56" width="20.86" height="37.88"/>
    <rect class="cls-34" x="145.02" y="203.96" width="36.15" height="25.69"/>
    <rect class="cls-34" x="97.45" y="285.86" width="19.25" height="34.73"/>
    <rect class="cls-34" x="119.32" y="274.17" width="21.16" height="43.02"/>
    <polygon class="cls-34" points="75.39 231.88 75.39 282.52 116.7 282.52 116.7 260.08 105.37 231.88 75.39 231.88"/>
    <polygon class="cls-34" points="385.35 224.58 355.1 224.58 344.42 273.79 385.35 273.79 385.35 224.58"/>
    <rect class="cls-34" x="807.24" y="356.96" width="47.15" height="25.83"/>
    <rect class="cls-34" x="516.93" y="974" width="41.02" height="73.81"/>
    <rect class="cls-34" x="388.16" y="999.02" width="39.36" height="48.79"/>
    <rect class="cls-34" x="932.52" y="647.55" width="32.64" height="47.24"/>
    <rect class="cls-34" x="962.52" y="717.73" width="32.64" height="31.19"/>
    <rect class="cls-34" x="897.12" y="735.46" width="33.53" height="39.17"/>
    <path class="cls-34" d="m847.33,748.91l45.69,10.17v45.75l31.3,11.06-12.61,40.96h-92.27s1.78-35.58,8.01-60.1c6.23-24.52,19.88-47.84,19.88-47.84Z"/>
    <polyline class="cls-34" points="840.38 871.51 934.86 871.51 934.86 961.21 896.28 961.21 879.08 1003.37 841.16 1003.37"/>
    <rect class="cls-34" x="1015.92" y="778.65" width="37.76" height="41.85"/>
    <rect class="cls-34" x="849.35" y="1040.8" width="61.16" height="141.54"/>
    <path class="cls-34" d="m873.23,102.73h30.44v46.54h-15.22s-1.7,19.87-3.39,30.65-2.25,33.8-2.25,33.8h-16.9s4.51-49.7,4.51-61.62,2.82-49.38,2.82-49.38Z"/>
    <g>
      <rect class="cls-31" x="627" y="570.16" width="116" height="40.46" rx="7.12" ry="7.12"/>
      <rect class="cls-31" x="623" y="651.08" width="120" height="37.72" rx="7.12" ry="7.12"/>
      <rect class="cls-31" x="615.21" y="875.85" width="120" height="50.55" rx="7.12" ry="7.12"/>
    </g>
    <rect class="cls-34" x="889.9" y="427.11" width="36.62" height="33.8"/>
    <rect class="cls-34" x="889.9" y="463.85" width="36.62" height="37.57"/>
    <rect class="cls-34" x="928.78" y="463.85" width="16.8" height="37.57"/>
    <rect class="cls-34" x="928.78" y="508.27" width="35.57" height="17.63"/>
    <rect class="cls-34" x="966.47" y="508.27" width="17.5" height="17.63"/>
    <rect class="cls-34" x="986.56" y="508.27" width="39.01" height="17.63"/>
    <rect class="cls-34" x="1028.49" y="478" width="33.77" height="47.9"/>
    <rect class="cls-34" x="948.49" y="463.85" width="35.48" height="37.57"/>
    <rect class="cls-34" x="986.42" y="478" width="17.78" height="23.41"/>
    <path class="cls-34" d="m473.54,1436.51h211.18s-16.91,74.74-35.24,94.05c-18.78,19.79-103.08,50.25-103.08,50.25h-72.16l-.7-144.31Z"/>
    <path class="cls-29" d="m1089.58,875.85s12.81,14.25,0,69.12c-12.81,54.88-26.97,60.79-24.16,95.83,2.81,35.04,7.08,81.72,7.08,95.66s-22.48,55.52-39.7,36.88c-17.22-18.64-44.26-43.25-45.68-61.77s-7.61-55.97,2.6-63.77c10.21-7.81,23.96-20.55,24.2-36.4.24-15.85-5.53-24.64-15.45-40.32-9.92-15.68-23.35-59.71-14.5-69.96,8.85-10.25,44.47-29.91,38.64-48.04-1.66-5.14,1.21-30.03,7.59-27.95,7.39,2.41,12-2.17,21.49,3.32,11.17,6.46,37.89,47.4,37.89,47.4Z"/>
  </g>
  <g id="name">
    <text class="cls-18" transform="translate(439.59 395.13)"><tspan x="0" y="0">内野</tspan><tspan class="cls-25" x="-65.52" y="39.71">（</tspan><tspan x="-33.09" y="39.71">大内裏</tspan><tspan class="cls-25" x="66.19" y="39.71">跡</tspan><tspan class="cls-26" x="98.62" y="39.71">）</tspan></text>
    <text class="cls-6" transform="translate(78.31 263.03)"><tspan x="0" y="0">仁和寺</tspan></text>
    <text class="cls-6" transform="translate(813.07 374.62)"><tspan x="0" y="0">法成寺</tspan></text>
    <text class="cls-13" transform="translate(891.57 447.81)"><tspan class="cls-28" x="0" y="0">白</tspan><tspan x="8.3" y="0">川北殿</tspan></text>
    <text class="cls-9" transform="translate(936.13 519.24)"><tspan x="0" y="0">延勝寺</tspan></text>
    <text class="cls-20" transform="translate(966.7 519.24)"><tspan x="0" y="0">成勝寺</tspan></text>
    <text class="cls-20" transform="translate(997.1 519.24)"><tspan class="cls-27" x="0" y="0">円</tspan><tspan x="5.66" y="0">勝寺</tspan></text>
    <text class="cls-13" transform="translate(891.57 480.43)"><tspan class="cls-28" x="0" y="0">白</tspan><tspan x="8.3" y="0">川南殿</tspan><tspan x="0" y="10.06">蓮華蔵院</tspan></text>
    <text class="cls-12" transform="translate(656.84 594.19)"><tspan x="0" y="0">三条町</tspan></text>
    <text class="cls-12" transform="translate(656.84 674.77)"><tspan x="0" y="0">四条町</tspan></text>
    <text class="cls-12" transform="translate(651.05 903.72)"><tspan x="0" y="0">七条町</tspan></text>
    <text class="cls-6" transform="translate(145.35 221.59)"><tspan class="cls-3" x="0" y="0">円</tspan><tspan x="11.8" y="0">融寺</tspan></text>
    <text class="cls-21" transform="translate(153.84 274.54)"><tspan x="0" y="0">円教寺</tspan></text>
    <text class="cls-23" transform="translate(367.72 228.83)"><tspan x="0" y="0">北野社</tspan></text>
    <text class="cls-23" transform="translate(887.61 106.68)"><tspan x="0" y="0">下鴨社</tspan></text>
    <text class="cls-23" transform="translate(948.84 650.82)"><tspan x="0" y="0">祇園社</tspan></text>
    <text class="cls-10" transform="translate(912.8 737.97)"><tspan x="0" y="0">珍皇寺</tspan></text>
    <text class="cls-5" transform="translate(978.84 718.94)"><tspan x="0" y="0">法観寺</tspan></text>
    <text class="cls-23" transform="translate(864.73 790.15)"><tspan x="0" y="0">六波羅</tspan></text>
    <text class="cls-23" transform="translate(884.26 899.26)"><tspan x="0" y="0">法住寺殿</tspan></text>
    <text class="cls-23" transform="translate(1040.95 963.06)"><tspan x="0" y="0">鳥辺野</tspan></text>
    <text class="cls-23" transform="translate(537.43 997.83)"><tspan x="0" y="0">東寺</tspan></text>
    <text class="cls-23" transform="translate(407.84 1009.78)"><tspan x="0" y="0">西寺</tspan></text>
    <text class="cls-23" transform="translate(879.93 1091.23)"><tspan x="0" y="0">法性寺</tspan></text>
    <text class="cls-21" transform="translate(129.9 280.62)"><tspan x="0" y="0">円乗寺</tspan></text>
    <text class="cls-21" transform="translate(107.07 289.25)"><tspan x="0" y="0">円宗寺</tspan></text>
    <text class="cls-14" transform="translate(132.96 391.33)"><tspan x="0" y="0">法金剛院</tspan></text>
    <text class="cls-4" transform="translate(1017.32 805.61)"><tspan x="0" y="0">清水寺</tspan></text>
    <text class="cls-17" transform="translate(937.18 470.37)"><tspan x="0" y="0">得長寿院</tspan></text>
    <text class="cls-17" transform="translate(964.34 473.44)"><tspan x="0" y="0">尊勝寺</tspan></text>
    <text class="cls-17" transform="translate(995.31 480.52)"><tspan x="0" y="0">最勝寺</tspan></text>
    <text class="cls-17" transform="translate(1045.37 492.76)"><tspan x="0" y="0">法勝寺</tspan></text>
    <text class="cls-4" transform="translate(533.95 1498.43)"><tspan x="0" y="0">鳥羽殿</tspan></text>
    <g id="street-2" data-name="street">
      <g>
        <text class="cls-8" transform="translate(755.46 226.86)"><tspan x="0" y="0">毘沙門堂大路</tspan></text>
        <text class="cls-15" transform="translate(755.14 300.82)"><tspan x="0" y="0">一条大路</tspan></text>
        <text class="cls-15" transform="translate(753.35 343.91)"><tspan x="0" y="0">土御門大路</tspan></text>
        <text class="cls-15" transform="translate(755.14 385.98)"><tspan x="0" y="0">近衛大路</tspan></text>
        <text class="cls-15" transform="translate(753.35 426.56)"><tspan x="0" y="0">中御門大路</tspan></text>
        <text class="cls-15" transform="translate(751.55 463.53)"><tspan x="0" y="0">大炊御門大路</tspan></text>
        <text class="cls-15" transform="translate(755.14 587.92)"><tspan x="0" y="0">三条大路</tspan></text>
        <text class="cls-15" transform="translate(755.14 665.48)"><tspan x="0" y="0">四条大路</tspan></text>
        <text class="cls-15" transform="translate(755.14 742.62)"><tspan x="0" y="0">五条大路</tspan></text>
        <text class="cls-15" transform="translate(755.14 896.15)"><tspan x="0" y="0">七条大路</tspan></text>
        <text class="cls-15" transform="translate(755.14 973.36)"><tspan x="0" y="0">八条大路</tspan></text>
        <text class="cls-15" transform="translate(755.14 1051.03)"><tspan x="0" y="0">九条大路</tspan></text>
        <text class="cls-24" transform="translate(750.54 506.91)"><tspan x="0" y="0">二条大路</tspan></text>
      </g>
      <g>
        <text class="cls-8" transform="translate(593.75 226.86)"><tspan x="0" y="0">毘沙門堂大路</tspan></text>
        <text class="cls-15" transform="translate(593.44 300.82)"><tspan x="0" y="0">一条大路</tspan></text>
        <text class="cls-15" transform="translate(591.64 343.91)"><tspan x="0" y="0">土御門大路</tspan></text>
        <text class="cls-15" transform="translate(593.44 385.98)"><tspan x="0" y="0">近衛大路</tspan></text>
        <text class="cls-15" transform="translate(591.64 426.56)"><tspan x="0" y="0">中御門大路</tspan></text>
        <text class="cls-15" transform="translate(589.85 463.53)"><tspan x="0" y="0">大炊御門大路</tspan></text>
        <text class="cls-15" transform="translate(593.44 587.92)"><tspan x="0" y="0">三条大路</tspan></text>
        <text class="cls-15" transform="translate(593.44 665.48)"><tspan x="0" y="0">四条大路</tspan></text>
        <text class="cls-15" transform="translate(593.44 742.62)"><tspan x="0" y="0">五条大路</tspan></text>
        <text class="cls-15" transform="translate(593.44 896.15)"><tspan x="0" y="0">七条大路</tspan></text>
        <text class="cls-15" transform="translate(593.44 973.36)"><tspan x="0" y="0">八条大路</tspan></text>
        <text class="cls-15" transform="translate(593.44 1051.03)"><tspan x="0" y="0">九条大路</tspan></text>
        <text class="cls-24" transform="translate(588.83 506.91)"><tspan x="0" y="0">二条大路</tspan></text>
      </g>
      <g>
        <text class="cls-16" transform="translate(472.43 255.59)"><tspan x="0" y="0">千本通</tspan></text>
        <text class="cls-16" transform="translate(559.4 253.7)"><tspan x="0" y="0">大宮大路</tspan></text>
        <text class="cls-7" transform="translate(641.42 251.79)"><tspan x="0" y="0">西洞院大路</tspan></text>
        <text class="cls-16" transform="translate(720.45 251.81)"><tspan x="0" y="0">東洞院大路</tspan></text>
        <text class="cls-16" transform="translate(805.78 251.81)"><tspan x="0" y="0">東京極大路</tspan></text>
        <text class="cls-7" transform="translate(386.8 251.79)"><tspan x="0" y="0">西大宮大路</tspan></text>
      </g>
      <g>
        <text class="cls-16" transform="translate(559.4 356)"><tspan x="0" y="0">大宮大路</tspan></text>
        <text class="cls-7" transform="translate(641.42 354.1)"><tspan x="0" y="0">西洞院大路</tspan></text>
        <text class="cls-16" transform="translate(720.45 354.11)"><tspan x="0" y="0">東洞院大路</tspan></text>
        <text class="cls-16" transform="translate(805.78 354.11)"><tspan x="0" y="0">東京極大路</tspan></text>
        <text class="cls-7" transform="translate(386.8 354.1)"><tspan x="0" y="0">西大宮大路</tspan></text>
        <text class="cls-16" transform="translate(304.11 356)"><tspan x="0" y="0">道祖大路</tspan></text>
      </g>
      <g>
        <text class="cls-16" transform="translate(559.4 437.99)"><tspan x="0" y="0">大宮大路</tspan></text>
        <text class="cls-7" transform="translate(641.42 436.08)"><tspan x="0" y="0">西洞院大路</tspan></text>
        <text class="cls-16" transform="translate(720.45 436.1)"><tspan x="0" y="0">東洞院大路</tspan></text>
        <text class="cls-16" transform="translate(805.78 436.1)"><tspan x="0" y="0">東京極大路</tspan></text>
        <text class="cls-7" transform="translate(386.8 436.08)"><tspan x="0" y="0">西大宮大路</tspan></text>
        <text class="cls-16" transform="translate(304.11 437.99)"><tspan x="0" y="0">道祖大路</tspan></text>
      </g>
      <g>
        <text class="cls-22" transform="translate(472.38 534.15)"><tspan x="0" y="0">千本通</tspan></text>
        <text class="cls-16" transform="translate(559.4 537.14)"><tspan x="0" y="0">大宮大路</tspan></text>
        <text class="cls-16" transform="translate(515.47 537.14)"><tspan x="0" y="0">壬生大路</tspan></text>
        <text class="cls-7" transform="translate(641.42 535.23)"><tspan x="0" y="0">西洞院大路</tspan></text>
        <text class="cls-16" transform="translate(678.99 537.14)"><tspan x="0" y="0">室町小路</tspan></text>
        <text class="cls-16" transform="translate(720.45 535.25)"><tspan x="0" y="0">東洞院大路</tspan></text>
        <text class="cls-16" transform="translate(805.78 535.25)"><tspan x="0" y="0">東京極大路</tspan></text>
      </g>
      <g>
        <text class="cls-22" transform="translate(472.38 692.12)"><tspan x="0" y="0">千本通</tspan></text>
        <text class="cls-16" transform="translate(559.4 695.11)"><tspan x="0" y="0">大宮大路</tspan></text>
        <text class="cls-16" transform="translate(515.47 695.11)"><tspan x="0" y="0">壬生大路</tspan></text>
        <text class="cls-7" transform="translate(641.42 693.2)"><tspan x="0" y="0">西洞院大路</tspan></text>
        <text class="cls-16" transform="translate(678.99 695.11)"><tspan x="0" y="0">室町小路</tspan></text>
        <text class="cls-16" transform="translate(720.45 693.22)"><tspan x="0" y="0">東洞院大路</tspan></text>
        <text class="cls-16" transform="translate(805.78 693.22)"><tspan x="0" y="0">東京極大路</tspan></text>
      </g>
      <g>
        <text class="cls-22" transform="translate(472.38 839.52)"><tspan x="0" y="0">千本通</tspan></text>
        <text class="cls-16" transform="translate(559.4 842.52)"><tspan x="0" y="0">大宮大路</tspan></text>
        <text class="cls-16" transform="translate(515.47 842.52)"><tspan x="0" y="0">壬生大路</tspan></text>
        <text class="cls-7" transform="translate(641.42 840.61)"><tspan x="0" y="0">西洞院大路</tspan></text>
        <text class="cls-16" transform="translate(678.99 842.52)"><tspan x="0" y="0">室町小路</tspan></text>
        <text class="cls-16" transform="translate(720.45 840.63)"><tspan x="0" y="0">東洞院大路</tspan></text>
      </g>
      <g>
        <text class="cls-22" transform="translate(472.38 1000.84)"><tspan x="0" y="0">千本通</tspan></text>
        <text class="cls-16" transform="translate(559.4 1003.84)"><tspan x="0" y="0">大宮大路</tspan></text>
        <text class="cls-16" transform="translate(515.47 1003.84)"><tspan x="0" y="0">壬生大路</tspan></text>
        <text class="cls-7" transform="translate(641.42 1001.93)"><tspan x="0" y="0">西洞院大路</tspan></text>
        <text class="cls-16" transform="translate(720.45 1001.95)"><tspan x="0" y="0">東洞院大路</tspan></text>
        <text class="cls-16" transform="translate(805.78 1001.95)"><tspan x="0" y="0">東京極大路</tspan></text>
      </g>
      <g>
        <text class="cls-19" transform="translate(472.43 1087.57)"><tspan x="0" y="0">鳥羽作道</tspan></text>
        <text class="cls-19" transform="translate(841.16 1087.57)"><tspan x="0" y="0">大和大路</tspan></text>
      </g>
      <g>
        <text class="cls-19" transform="translate(472.43 1299.84)"><tspan x="0" y="0">鳥羽作道</tspan></text>
        <text class="cls-19" transform="translate(472.43 1481.68)"><tspan x="0" y="0">鳥羽作道</tspan></text>
        <text class="cls-19" transform="translate(841.16 1299.84)"><tspan x="0" y="0">大和大路</tspan></text>
      </g>
      <g>
        <text class="cls-11" transform="translate(635.87 1140.92)"><tspan x="0" y="0">山陰道</tspan></text>
        <text class="cls-11" transform="translate(252.44 1142.86)"><tspan x="0" y="0">山陰道</tspan></text>
      </g>
    </g>
  </g>
</svg>